<?xml version="1.0" standalone="yes"?>
<svg xmlns="http://www.w3.org/2000/svg" width="512" height="370">
<path style="fill:#fefefd; stroke:none;" d="M0 0L0 49L1 49C2.93447 25.3159 26.0061 2.04617 50 1C37.1103 -4.40869 14.0494 0 0 0z"/>
<path style="fill:#a1c3e6; stroke:none;" d="M50 0L50 1L53 1L50 0z"/>
<path style="fill:#6099d5; stroke:none;" d="M53 0L53 1L459 1L423 0L340 0L53 0z"/>
<path style="fill:#a1c3e6; stroke:none;" d="M459 0L459 1L462 1L459 0z"/>
<path style="fill:#fefefd; stroke:none;" d="M462 0L462 1C485.96 2.04471 509.065 25.3097 511 49L512 49L512 0L462 0z"/>
<path style="fill:#a1c3e6; stroke:none;" d="M44 1L45 2L44 1z"/>
<path style="fill:#6099d5; stroke:none;" d="M45.6667 1.33334L46.3333 1.66666L45.6667 1.33334z"/>
<path style="fill:#015bbb; stroke:none;" d="M0 185L512 185L512 78C512 57.0565 512.47 35.2828 496.96 19C471.178 -8.06653 426.033 1 392 1L126 1C93.007 1 43.8786 -8.78323 18.0008 16.0394C-0.303528 33.5973 0 56.4304 0 80L0 185z"/>
<path style="fill:#6099d5; stroke:none;" d="M465.667 1.33334L466.333 1.66666L465.667 1.33334z"/>
<path style="fill:#a1c3e6; stroke:none;" d="M467 1L468 2L467 1M40 2L41 3L40 2z"/>
<path style="fill:#6099d5; stroke:none;" d="M41 2L42 3L41 2M470 2L471 3L470 2z"/>
<path style="fill:#a1c3e6; stroke:none;" d="M471 2L472 3L471 2z"/>
<path style="fill:#6099d5; stroke:none;" d="M38 3L39 4L38 3M473 3L474 4L473 3z"/>
<path style="fill:#a1c3e6; stroke:none;" d="M474 3L475 4L474 3M35 4L36 5L35 4M476 4L477 5L476 4z"/>
<path style="fill:#6099d5; stroke:none;" d="M33 5L34 6L33 5M478 5L479 6L478 5M31 6L32 7L31 6M480 6L481 7L480 6M29 7L30 8L29 7M482 7L483 8L482 7z"/>
<path style="fill:#a1c3e6; stroke:none;" d="M27 8L28 9L27 8M484 8L485 9L484 8z"/>
<path style="fill:#6099d5; stroke:none;" d="M24 10L25 11L24 10M487 10L488 11L487 10M23 11L24 12L23 11z"/>
<path style="fill:#a1c3e6; stroke:none;" d="M21 12L22 13L21 12M490 12L491 13L490 12z"/>
<path style="fill:#6099d5; stroke:none;" d="M20 13L21 14L20 13z"/>
<path style="fill:#a1c3e6; stroke:none;" d="M491 13L492 14L491 13z"/>
<path style="fill:#6099d5; stroke:none;" d="M19 14L20 15L19 14M492 14L493 15L492 14M18 15L19 16L18 15M493 15L494 16L493 15M17 16L18 17L17 16M494 16L495 17L494 16M16 17L17 18L16 17M495 17L496 18L495 17M15 18L16 19L15 18M496 18L497 19L496 18M14 19L15 20L14 19M497 19L498 20L497 19M13 20L14 21L13 20M498 20L499 21L498 20z"/>
<path style="fill:#a1c3e6; stroke:none;" d="M12 21L13 22L12 21M499 21L500 22L499 21z"/>
<path style="fill:#6099d5; stroke:none;" d="M10 24L11 25L10 24M501 24L502 25L501 24z"/>
<path style="fill:#a1c3e6; stroke:none;" d="M9 25L10 26L9 25M502 25L503 26L502 25M8 27L9 28L8 27M503 27L504 28L503 27z"/>
<path style="fill:#6099d5; stroke:none;" d="M7 29L8 30L7 29M504 29L505 30L504 29z"/>
<path style="fill:#a1c3e6; stroke:none;" d="M6 30L7 31L6 30z"/>
<path style="fill:#6099d5; stroke:none;" d="M6 31L7 32L6 31M505 31L506 32L505 31M5 33L6 34L5 33M506 33L507 34L506 33M4 35L5 36L4 35M507 35L508 36L507 35z"/>
<path style="fill:#a1c3e6; stroke:none;" d="M3 37L4 38L3 37M508 37L509 38L508 37z"/>
<path style="fill:#6099d5; stroke:none;" d="M3 38L4 39L3 38M508 38L509 39L508 38z"/>
<path style="fill:#a1c3e6; stroke:none;" d="M2 40L3 41L2 40M509 40L510 41L509 40z"/>
<path style="fill:#6099d5; stroke:none;" d="M2 41L3 42L2 41M509 41L510 42L509 41z"/>
<path style="fill:#a1c3e6; stroke:none;" d="M1 44L2 45L1 44M510 44L511 45L510 44z"/>
<path style="fill:#6099d5; stroke:none;" d="M1 45L2 46L1 45M510 45L511 46L510 45z"/>
<path style="fill:#a1c3e6; stroke:none;" d="M0.333333 49.6667L0.666667 50.3333L0.333333 49.6667M511.333 49.6667L511.667 50.3333L511.333 49.6667z"/>
<path style="fill:#6099d5; stroke:none;" d="M0 51L0 55L1 55L0 51M511 51L511 54L512 54L511 51z"/>
<path style="fill:#ffd501; stroke:none;" d="M0 185L0 291C0 313.543 -0.719776 335.453 16.1705 352.91C41.7718 379.372 90.6964 370 124 370L390 370C422.763 370 469.126 378.776 494.91 353.829C512.47 336.84 512 314.544 512 292L512 185L0 185z"/>
<path style="fill:#fefefd; stroke:none;" d="M0 319L0 370L53 370L53 369C32.8012 368.833 14.5686 354.632 5.80941 337C2.94295 331.23 2.56731 324.717 0 319M511 319C509.871 344.896 484.791 368.786 459 369L459 370L512 370C512 355.689 516.508 332.127 511 319z"/>
</svg>
