<svg version="1.1" xmlns="http://www.w3.org/2000/svg" viewBox="0 0 1163.6 310.85" xml:space="preserve">
    <g>
        <path fill="#0763e8" d="M513.58,341.88H383.87V321l82.54-110.62H389.82V180.83H513.35v20.33L432.61,312.45h81Z" transform="translate(-26.73 -31.22)"/>
        <path fill="#1a76fc" d="M700.92,341.88H567.48V117.82H618V300.94h83Z" transform="translate(-26.73 -31.22)"/>
        <path fill="#0763e8" d="M792.14,341.88H755.87v-161h36.27Z" transform="translate(-26.73 -31.22)"/>
        <path fill="#0763e8" d="M996.63,341.88H960L893.64,240.69a147.39,147.39,0,0,1-8.08-13.36h-.45q.9,8.53.9,26v88.5H851.75v-161h39.09l63.9,98q4.38,6.62,8.08,13.13h.45q-.9-5.61-.9-22.12V180.83h34.26Z" transform="translate(-26.73 -31.22)"/>
        <path fill="#0763e8" d="M1190.33,341.88h-45.82l-46.94-70a67.1,67.1,0,0,1-4.27-8.87h-.56v78.84h-36.28v-161h36.28V257h.56q1.35-3.15,4.49-9l44.47-67.16h43.24l-56.15,76.82Z" transform="translate(-26.73 -31.22)"/>
    </g>
    <polygon fill="#1a76fc" points="120.29 0 182.32 0 302.61 310.85 240.96 310.85 120.29 0"/>
    <polygon fill="#0763e8" points="151.34 79.92 120.35 0 0 310.85 61.65 310.85 151.34 79.92"/>
    <polygon fill="#004ce3" points="61.65 310.85 95.5 223.65 186.15 169.67 207.36 224.22 61.65 310.85"/>
</svg>
