<svg xmlns="http://www.w3.org/2000/svg" viewBox="0 0 1163.6 310.85">
    <path fill="#0763e8" d="M486.85 310.66H357.14v-20.88l82.54-110.62h-76.59v-29.55h123.53v20.33l-80.74 111.29h81Z"/>
    <path fill="#1a76fc" d="M674.19 310.66H540.75V86.6h50.52v183.12h83Z"/>
    <path fill="#0763e8" d="M765.41 310.66h-36.27v-161h36.27ZM969.9 310.66h-36.63l-66.36-101.19a147.39 147.39 0 0 1-8.08-13.36h-.45q.9 8.53.9 26v88.5h-34.26v-161h39.09l63.9 98q4.38 6.62 8.08 13.13h.45q-.9-5.61-.9-22.12v-89.01h34.26ZM1163.6 310.66h-45.82l-46.94-70a67.1 67.1 0 0 1-4.27-8.87h-.56v78.84h-36.28v-161h36.28v76.15h.56q1.35-3.15 4.49-9l44.47-67.16h43.24l-56.15 76.82Z"/>
    <path fill="#1a76fc" d="M120.29 0h62.03l120.29 310.85h-61.65L120.29 0z"/>
    <path fill="#0763e8" d="M151.34 79.92 120.35 0 0 310.85h61.65l89.69-230.93z"/>
    <path fill="#004ce3" d="m61.65 310.85 33.85-87.2 90.65-53.98 21.21 54.55-145.71 86.63z"/>
</svg>
