<svg width="100%" height="100%" viewBox="0 0 1000 500" version="1.1" xmlns="http://www.w3.org/2000/svg" xmlns:xlink="http://www.w3.org/1999/xlink">
    <defs>
        <linearGradient id="background-gradient" gradientUnits="userSpaceOnUse">
            <stop offset="0" stop-color="#161334"/>
            <stop offset="0.36" stop-color="#181438"/>
            <stop offset="0.7" stop-color="#201643"/>
            <stop offset="1" stop-color="#2b1954"/>
        </linearGradient>
        <linearGradient id="gradient" x1="-77.27" y1="560.02" x2="-28.31" y2="530.77" gradientTransform="matrix(-0.91, -0.41, 0.41, -0.91, 544.23, 663.86)" gradientUnits="userSpaceOnUse">
            <stop offset="0" stop-color="#93278f"/>
            <stop offset="0.22" stop-color="#9a258a"/>
            <stop offset="0.53" stop-color="#ac207b"/>
            <stop offset="0.89" stop-color="#ca1762"/>
            <stop offset="1" stop-color="#d4145a"/>
        </linearGradient>
        <linearGradient id="gradient-2" x1="-57.76" y1="511.8" x2="-8.81" y2="482.55" xlink:href="#gradient"/>
        <linearGradient id="gradient-3" x1="393.51" y1="106.77" x2="442.47" y2="77.52" xlink:href="#gradient"/>
        <linearGradient id="gradient-4" x1="413.02" y1="58.56" x2="461.98" y2="29.31" xlink:href="#gradient"/>
        <linearGradient id="gradient-5" x1="375.87" y1="460.98" x2="424.82" y2="431.73" xlink:href="#gradient"/>
        <linearGradient id="gradient-6" x1="395.37" y1="412.77" x2="444.33" y2="383.52" xlink:href="#gradient"/>
        <linearGradient id="gradient-7" x1="662.33" y1="519.5" x2="1024.28" y2="303.24" gradientTransform="matrix(1, 0, 0, 1, 0, 0)" xlink:href="#gradient"/>
        <linearGradient id="gradient-8" x1="0" y1="103.77" x2="235" y2="103.77" gradientTransform="matrix(1, 0, 0, 1, 0, 0)" xlink:href="#gradient"/>
        <linearGradient id="gradient-9" x1="263.83" y1="58.13" x2="312.92" y2="28.8" gradientTransform="matrix(1, 0, 0, 1, 0, 0)" xlink:href="#gradient"/>
        <linearGradient id="gradient-10" x1="575.64" y1="60.66" x2="639.39" y2="22.57" gradientTransform="translate(140.35 466.03) rotate(-45.19)" xlink:href="#gradient"/>
        <linearGradient id="gradient-11" x1="398" y1="399.1" x2="496.49" y2="340.26" gradientTransform="translate(-116.65 188.42) rotate(-20.04)" xlink:href="#gradient"/>
        <linearGradient id="gradient-12" x1="112.22" y1="308.3" x2="162.07" y2="278.51" gradientTransform="translate(-167.9 187.31) rotate(-45.19)" xlink:href="#gradient"/>
        <linearGradient id="gradient-13" x1="438.27" y1="257.29" x2="507.6" y2="215.86" gradientTransform="translate(145.92 -179.84) rotate(24.99)" xlink:href="#gradient"/>
        <linearGradient id="gradient-14" x1="786.5" y1="109.51" x2="889.28" y2="48.11" gradientTransform="translate(-1.39 150.46) rotate(-10.14)" xlink:href="#gradient"/>
    </defs>
    <rect x="0" y="0" width="1000" height="500" fill="url(#background-gradient)"/>
    <path d="M973.173,124.205l-19.42,56.95l-39.61,-45.3l59.03,-11.65Z" opacity="0.55" fill="url(#gradient)"/>
    <path d="M935.653,160.215l-19.42,56.95l-39.61,-45.29l59.03,-11.66Z" opacity="0.55" fill="url(#gradient-2)"/>
    <path d="M228.96,378.11l-19.42,56.95l-39.6,-45.3l59.02,-11.65Z" opacity="0.3" fill="url(#gradient-3)"/>
    <path d="M191.44,414.12l-19.42,56.95l-39.61,-45.29l59.03,-11.66Z" opacity="0.3" fill="url(#gradient-4)"/>
    <path d="M389.96,62.11l-19.42,56.95l-39.6,-45.3l59.02,-11.65Z" opacity="0.6" fill="url(#gradient-5)"/>
    <path d="M352.44,98.12l-19.42,56.95l-39.61,-45.29l59.03,-11.66Z" opacity="0.6" fill="url(#gradient-6)"/>
    <path d="M1000,268l0,232l-378,0c-24.57,-45 -31.85,-114.38 -4,-136c30,-23.31 77.53,27 128,4c29.57,-13.46 37.41,-41.72 48.81,-68.92c2.536,-6.196 5.403,-12.252 8.59,-18.14c6.5,-11.76 14.91,-22.57 27.6,-30.94c50,-33 126.78,-8.37 169,18Z" opacity="0.25" fill="url(#gradient-7)"/>
    <path d="M235,0c-0.93,5.9 -35.68,-3.29 -71,20c-4.8,3.17 -25.26,17.25 -44,56c-33.62,69.51 -12.56,116.7 -36,129c-22.06,11.57 -62.55,-18.77 -84,-44l0,-161l235,0Z" opacity="0.25" fill="url(#gradient-8)"/>
    <path d="M322,58.43l-49.44,13.08c-0.458,0.121 -0.929,0.182 -1.402,0.182c-3.018,-0 -5.5,-2.483 -5.5,-5.5c-0,-0.487 0.064,-0.972 0.192,-1.442l13.4,-49.36c0.661,-2.371 2.837,-4.024 5.298,-4.024c1.469,0 2.879,0.589 3.912,1.634l36.05,36.28c1.001,1.027 1.561,2.405 1.561,3.839c0,2.479 -1.677,4.667 -4.071,5.311Z" opacity="0.3" fill="url(#gradient-9)"/>
    <path d="M680.339,51.585l-35.35,61.29c-0.881,1.585 -2.557,2.57 -4.37,2.57c-1.813,0 -3.489,-0.985 -4.37,-2.57l-35.42,-61.29c-0.465,-0.777 -0.711,-1.665 -0.711,-2.571c-0,-2.743 2.257,-5 5,-5c0.027,0 0.054,0.001 0.081,0.001l70.79,0c0.021,-0 0.041,-0 0.061,-0c2.743,-0 5,2.257 5,5c0,0.905 -0.246,1.794 -0.711,2.57Z" opacity="0.4" fill="url(#gradient-10)"/>
    <path d="M490.353,404.672l-93.62,65.2c-0.925,0.643 -2.024,0.987 -3.15,0.987c-2.851,0 -5.256,-2.207 -5.5,-5.047l-9.65,-113.67c-0.014,-0.159 -0.021,-0.318 -0.021,-0.477c0,-3.022 2.487,-5.51 5.51,-5.51c0.813,0 1.616,0.18 2.351,0.527l103.27,48.47c1.931,0.909 3.169,2.86 3.169,4.994c0,1.802 -0.882,3.494 -2.359,4.526Z" opacity="0.35" fill="url(#gradient-11)"/>
    <path d="M172.05,282.32l-26.79,46.39c-0.857,1.481 -2.444,2.397 -4.155,2.397c-1.711,-0 -3.298,-0.916 -4.155,-2.397l-26.78,-46.39c-0.421,-0.73 -0.643,-1.557 -0.643,-2.4c-0,-2.633 2.167,-4.8 4.8,-4.8c0.001,-0 0.002,-0 0.003,0l53.56,0c2.633,0.008 4.796,2.177 4.796,4.81c-0,0.838 -0.219,1.662 -0.636,2.39Z" opacity="0.25" fill="url(#gradient-12)"/>
    <path d="M537.481,188.604l-76.77,-13.77c-2.372,-0.427 -4.114,-2.511 -4.114,-4.921c-0,-1.178 0.416,-2.318 1.174,-3.219l50.37,-59.59c0.949,-1.12 2.345,-1.766 3.813,-1.766c2.095,0 3.978,1.317 4.697,3.286l26.46,73.38c0.193,0.541 0.292,1.111 0.292,1.686c0,2.743 -2.257,5 -5,5c-0.309,-0 -0.618,-0.029 -0.922,-0.086Z" opacity="0.6" fill="url(#gradient-13)"/>
    <path d="M918.09,94.12l-108.4,50.44c-0.727,0.337 -1.519,0.512 -2.32,0.512c-3.023,0 -5.51,-2.487 -5.51,-5.51c-0,-0.157 0.006,-0.315 0.02,-0.472l10.52,-119.09c0.27,-2.806 2.655,-4.974 5.475,-4.974c1.116,-0 2.206,0.34 3.125,0.974l97.89,68.66c1.461,1.029 2.332,2.709 2.332,4.496c-0,2.116 -1.222,4.053 -3.132,4.964Z" opacity="0.5" fill="url(#gradient-14)"/>
    <g>
        <g>
            <path d="M426.411,249.511l-32.373,46.516l31.934,-0l0,8.27l-45.672,0l-0,-4.489l32.507,-46.247l-30.009,0l-0,-8.338l43.613,0l-0,4.288Z" fill="#0763e8"/>
            <path d="M489.502,280.431c-0,16.609 -7.866,24.879 -23.562,24.879c-15.056,-0 -22.583,-7.967 -22.583,-23.933l-0,-36.154l9.823,0l-0,34.128c-0,11.579 4.489,17.385 13.502,17.385c8.676,-0 13.03,-5.604 13.03,-16.777l0,-34.736l9.823,0l0,35.208l-0.033,0Z" fill="#0763e8"/>
            <path d="M557.487,304.331l-11.443,0l-9.452,-15.832c-0.844,-1.451 -1.688,-2.7 -2.498,-3.713c-0.81,-1.046 -1.62,-1.89 -2.464,-2.532c-0.844,-0.675 -1.756,-1.147 -2.734,-1.451c-0.979,-0.304 -2.093,-0.439 -3.342,-0.439l-3.95,-0l0,23.967l-9.755,0l-0,-59.108l19.443,0c2.768,0 5.334,0.338 7.663,0.979c2.329,0.676 4.355,1.654 6.11,2.971c1.721,1.316 3.072,3.004 4.051,4.996c0.979,1.992 1.451,4.321 1.451,6.988c0,2.092 -0.304,4.017 -0.911,5.738c-0.608,1.755 -1.486,3.308 -2.633,4.659c-1.148,1.35 -2.498,2.531 -4.119,3.476c-1.62,0.946 -3.409,1.688 -5.434,2.228l-0,0.169c1.08,0.608 1.991,1.283 2.801,1.992c0.811,0.742 1.553,1.485 2.262,2.261c0.709,0.777 1.418,1.655 2.127,2.633c0.709,0.979 1.485,2.093 2.329,3.41l10.498,16.608Zm-35.883,-51.175l0,19.241l8.169,0c1.519,0 2.903,-0.236 4.186,-0.708c1.283,-0.473 2.397,-1.148 3.308,-2.026c0.945,-0.878 1.654,-1.958 2.194,-3.207c0.507,-1.249 0.777,-2.666 0.777,-4.253c-0,-2.836 -0.878,-5.03 -2.667,-6.65c-1.789,-1.587 -4.355,-2.397 -7.697,-2.397l-8.27,0Z" fill="#0763e8"/>
            <rect x="572.779" y="245.223" width="10.093" height="59.108" fill="#0763e8"/>
            <path d="M630.199,305.31c-8.507,-0 -15.326,-2.768 -20.457,-8.27c-5.131,-5.536 -7.696,-12.693 -7.696,-21.537c-0,-9.519 2.599,-17.081 7.831,-22.752c5.233,-5.671 12.321,-8.473 21.267,-8.473c8.304,0 14.988,2.735 20.051,8.237c5.064,5.502 7.595,12.692 7.595,21.536c0,9.655 -2.599,17.25 -7.797,22.854c-5.199,5.603 -12.085,8.405 -20.794,8.405Zm0.472,-52.458c-5.401,0 -9.823,2.026 -13.198,6.043c-3.376,4.017 -5.098,9.35 -5.098,15.933c0,6.582 1.654,11.848 4.929,15.865c3.308,4.017 7.595,6.009 12.928,6.009c5.672,0 10.127,-1.924 13.402,-5.739c3.274,-3.814 4.894,-9.148 4.894,-16.034c0,-7.055 -1.586,-12.523 -4.759,-16.372c-3.14,-3.78 -7.528,-5.705 -13.098,-5.705Z" fill="#0763e8"/>
            <path d="M741.528,304.331l-9.722,0l-0,-38.246c-0,-3.139 0.202,-6.954 0.574,-11.511l-0.169,0c-0.608,2.599 -1.148,4.422 -1.621,5.57l-17.62,44.187l-6.752,0l-17.688,-43.85c-0.506,-1.282 -1.013,-3.24 -1.553,-5.907l-0.169,0c0.237,2.363 0.338,6.211 0.338,11.578l-0,38.145l-9.081,0l0,-59.074l13.807,0l15.528,39.361c1.181,3.038 1.958,5.266 2.295,6.751l0.203,-0c1.012,-3.106 1.856,-5.401 2.464,-6.92l15.832,-39.192l13.3,0l-0,59.108l0.034,0Z" fill="#0763e8"/>
        </g>
        <path d="M300.398,199.382l20.929,0l40.609,104.949l-20.794,0l-40.744,-104.949Z" fill="#1a76fc"/>
        <path d="M310.896,226.354l-10.464,-26.972l-40.643,104.949l20.828,0l30.279,-77.977Z" fill="#0763e8"/>
        <path d="M280.617,304.331l11.409,-29.436l30.618,-18.228l7.156,18.397l-49.183,29.267Z" fill="#004ce3"/>
    </g>
</svg>
