<svg xmlns="http://www.w3.org/2000/svg" viewBox="0 0 64 64"><linearGradient id="RAeVX7AeerTpT9bZbDDc3a" x1="32" x2="32" y1="4.667" y2="58.458" gradientUnits="userSpaceOnUse" spreadMethod="reflect"><stop offset="0" stop-color="#1a6dff"/><stop offset="1" stop-color="#c822ff"/></linearGradient><path fill="url(#RAeVX7AeerTpT9bZbDDc3a)" d="M26.781,58H14.007c-0.814,0-1.542-0.486-1.854-1.238c-0.311-0.751-0.14-1.606,0.436-2.182 l21.915-21.871c0.188-0.189,0.294-0.441,0.294-0.709s-0.105-0.52-0.295-0.71L12.59,9.42c-0.576-0.575-0.747-1.431-0.437-2.182 C12.465,6.486,13.192,6,14.007,6h12.774c0.791,0,1.564,0.32,2.124,0.878l21.627,21.586C51.478,29.408,52,30.664,52,32 s-0.521,2.592-1.468,3.536L28.905,57.122C28.346,57.68,27.572,58,26.781,58z M14.007,8c-0.008,0-0.011,0.001-0.011,0.001 l21.92,21.874c1.172,1.172,1.172,3.078,0.001,4.249L14.002,55.996L26.781,56c0.265,0,0.524-0.107,0.712-0.294L49.12,34.12 C49.687,33.554,50,32.801,50,32s-0.313-1.554-0.88-2.12L27.493,8.294C27.305,8.107,27.046,8,26.781,8H14.007z"/><linearGradient id="RAeVX7AeerTpT9bZbDDc3b" x1="32.384" x2="32.384" y1="8.333" y2="56.094" gradientUnits="userSpaceOnUse" spreadMethod="reflect"><stop offset="0" stop-color="#6dc7ff"/><stop offset="1" stop-color="#e6abff"/></linearGradient><path fill="url(#RAeVX7AeerTpT9bZbDDc3b)" d="M44.71,34.12L25.111,53.709C24.925,53.895,24.672,54,24.408,54H19.18l20.576-20.586 c0.781-0.781,0.781-2.048,0-2.829L19.18,10h5.225c0.265,0,0.52,0.105,0.708,0.293L44.71,29.88C45.88,31.05,45.88,32.95,44.71,34.12z"/></svg>
