<svg viewBox="0 0 709 709" version="1.1" xmlns="http://www.w3.org/2000/svg">
    <path fill="url(#gradient)" d="M708.66,354.33c0,-195.56 -158.77,-354.33 -354.33,-354.33c-195.56,0 -354.33,158.77 -354.33,354.33c0,195.56 158.77,354.33 354.33,354.33c195.56,0 354.33,-158.77 354.33,-354.33l0,-0Z"/>
    <path fill="#fff" style="filter: drop-shadow(0 0 3rem rgba(255, 255, 255, 0.5))" d="M512.89,366c4.021,-11.708 6.073,-24.001 6.073,-36.38c0,-61.442 -50.558,-112 -112,-112c-41.943,-0 -80.509,23.561 -99.653,60.88c-12.57,-12.638 -29.679,-19.752 -47.504,-19.752c-36.755,0 -67,30.245 -67,67c0,13.882 4.315,27.427 12.344,38.752c-32.684,2.789 -58.101,30.468 -58.101,63.27c0,34.835 28.665,63.5 63.5,63.5c0.027,0 0.054,0 0.081,0l287.37,0c0.028,0 0.056,0 0.084,0c34.841,0 63.51,-28.669 63.51,-63.51c0,-29.272 -20.238,-54.936 -48.704,-61.76Z"/>
    <defs>
        <radialGradient id="gradient" cx="0" cy="0" r="1" gradientUnits="userSpaceOnUse" gradientTransform="matrix(921.51,0,0,921.51,657.2,682.24)">
            <stop offset="0" stop-color="#43cbff"/>
            <stop offset="1" stop-color="#9709cc"/>
        </radialGradient>
    </defs>
</svg>
