<svg viewBox="0 0 500 500" xmlns="http://www.w3.org/2000/svg">
    <defs>
        <radialGradient id="gradient" cx="0" cy="0" r="1" gradientUnits="userSpaceOnUse" gradientTransform="matrix(649.866,0,0,649.866,463.47,481.128)">
            <stop offset="0" stop-color="#43cbff"/>
            <stop offset="1" stop-color="#9709cc"/>
        </radialGradient>
    </defs>
    <filter id="shadow" width="200%" height="200%" filterUnits="userSpaceOnUse">
        <feDropShadow flood-color="#fff" flood-opacity="0.5" stdDeviation="45"/>
    </filter>
    <path fill="url(#gradient)" d="M499.76,249.88c0,-137.912 -111.967,-249.88 -249.88,-249.88c-137.912,0 -249.88,111.968 -249.88,249.88c0,137.913 111.968,249.88 249.88,249.88c137.913,0 249.88,-111.967 249.88,-249.88Z"/>
    <path fill="#fff" filter="url(#shadow)" d="M361.7,258.11c2.835,-8.257 4.282,-16.926 4.282,-25.656c0,-43.33 -35.654,-78.984 -78.984,-78.984c-29.579,-0 -56.777,16.615 -70.277,42.933c-8.865,-8.912 -20.93,-13.929 -33.501,-13.929c-25.92,-0 -47.25,21.329 -47.25,47.25c0,9.789 3.043,19.342 8.706,27.328c-23.05,1.967 -40.974,21.487 -40.974,44.619c-0,24.567 20.215,44.782 44.781,44.782l202.775,-0c24.571,-0 44.789,-20.218 44.789,-44.789c-0,-20.643 -14.273,-38.742 -34.347,-43.554Z"/>
</svg>
