<svg xmlns="http://www.w3.org/2000/svg" viewBox="0 0 64 64" width="256" height="256"><linearGradient id="2~kIYcDjBjAVPnBA__RB0a" x1="11" x2="11" y1="24.125" y2="27.956" gradientUnits="userSpaceOnUse" spreadMethod="reflect"><stop offset="0" stop-color="#6dc7ff"/><stop offset="1" stop-color="#e6abff"/></linearGradient><path fill="url(#2~kIYcDjBjAVPnBA__RB0a)" d="M11 24.5A1.5 1.5 0 1 0 11 27.5A1.5 1.5 0 1 0 11 24.5Z"/><linearGradient id="2~kIYcDjBjAVPnBA__RB0b" x1="11" x2="11" y1="30.5" y2="33.761" gradientUnits="userSpaceOnUse" spreadMethod="reflect"><stop offset="0" stop-color="#6dc7ff"/><stop offset="1" stop-color="#e6abff"/></linearGradient><path fill="url(#2~kIYcDjBjAVPnBA__RB0b)" d="M11 30.5A1.5 1.5 0 1 0 11 33.5A1.5 1.5 0 1 0 11 30.5Z"/><linearGradient id="2~kIYcDjBjAVPnBA__RB0c" x1="11" x2="11" y1="36.188" y2="39.743" gradientUnits="userSpaceOnUse" spreadMethod="reflect"><stop offset="0" stop-color="#6dc7ff"/><stop offset="1" stop-color="#e6abff"/></linearGradient><path fill="url(#2~kIYcDjBjAVPnBA__RB0c)" d="M11 36.5A1.5 1.5 0 1 0 11 39.5A1.5 1.5 0 1 0 11 36.5Z"/><linearGradient id="2~kIYcDjBjAVPnBA__RB0d" x1="32" x2="32" y1="7.5" y2="56.684" gradientUnits="userSpaceOnUse" spreadMethod="reflect"><stop offset="0" stop-color="#1a6dff"/><stop offset="1" stop-color="#c822ff"/></linearGradient><path fill="url(#2~kIYcDjBjAVPnBA__RB0d)" d="M49,36.051V18v-1v-1c0-1.654-1.346-3-3-3H34h-3.041c-0.304,0-0.587-0.136-0.776-0.374 l-2.8-3.498C26.811,8.411,25.955,8,25.036,8h-9H16H9.005C7.348,8,6,9.348,6,11.005V17v1v26c0,1.654,1.346,3,3,3h25.051 c0.503,5.046,4.773,9,9.949,9h4c5.514,0,10-4.486,10-10C58,40.824,54.046,36.554,49,36.051z M39.67,37H35v2h1.871 c-1.553,1.582-2.588,3.673-2.82,6H16V19h31v17h-3C42.448,36,40.982,36.366,39.67,37z M25.82,10.377L27.92,13h-5.961 c-0.304,0-0.587-0.136-0.776-0.374L19.081,10h5.955C25.344,10,25.629,10.137,25.82,10.377z M8,11.005C8,10.451,8.451,10,9.005,10H16 h0.036c0.308,0,0.593,0.137,0.784,0.377l2.8,3.498C20.19,14.59,21.043,15,21.959,15h9H34h12c0.552,0,1,0.448,1,1v1H8V11.005z M8,44 V19h6v26H9C8.448,45,8,44.552,8,44z M48,54h-4c-4.411,0-8-3.589-8-8s3.589-8,8-8h4c4.411,0,8,3.589,8,8S52.411,54,48,54z"/><linearGradient id="2~kIYcDjBjAVPnBA__RB0e" x1="28" x2="28" y1="7.5" y2="56.684" gradientUnits="userSpaceOnUse" spreadMethod="reflect"><stop offset="0" stop-color="#1a6dff"/><stop offset="1" stop-color="#c822ff"/></linearGradient><path fill="url(#2~kIYcDjBjAVPnBA__RB0e)" d="M23 25H33V27H23z"/><linearGradient id="2~kIYcDjBjAVPnBA__RB0f" x1="40" x2="40" y1="7.5" y2="56.684" gradientUnits="userSpaceOnUse" spreadMethod="reflect"><stop offset="0" stop-color="#1a6dff"/><stop offset="1" stop-color="#c822ff"/></linearGradient><path fill="url(#2~kIYcDjBjAVPnBA__RB0f)" d="M35 25H45V27H35z"/><linearGradient id="2~kIYcDjBjAVPnBA__RB0g" x1="42" x2="42" y1="7.5" y2="56.684" gradientUnits="userSpaceOnUse" spreadMethod="reflect"><stop offset="0" stop-color="#1a6dff"/><stop offset="1" stop-color="#c822ff"/></linearGradient><path fill="url(#2~kIYcDjBjAVPnBA__RB0g)" d="M39 29H45V31H39z"/><linearGradient id="2~kIYcDjBjAVPnBA__RB0h" x1="34" x2="34" y1="7.5" y2="56.684" gradientUnits="userSpaceOnUse" spreadMethod="reflect"><stop offset="0" stop-color="#1a6dff"/><stop offset="1" stop-color="#c822ff"/></linearGradient><path fill="url(#2~kIYcDjBjAVPnBA__RB0h)" d="M31 29H37V31H31z"/><linearGradient id="2~kIYcDjBjAVPnBA__RB0i" x1="42" x2="42" y1="7.5" y2="56.684" gradientUnits="userSpaceOnUse" spreadMethod="reflect"><stop offset="0" stop-color="#1a6dff"/><stop offset="1" stop-color="#c822ff"/></linearGradient><path fill="url(#2~kIYcDjBjAVPnBA__RB0i)" d="M39 33H45V35H39z"/><linearGradient id="2~kIYcDjBjAVPnBA__RB0j" x1="34" x2="34" y1="7.5" y2="56.684" gradientUnits="userSpaceOnUse" spreadMethod="reflect"><stop offset="0" stop-color="#1a6dff"/><stop offset="1" stop-color="#c822ff"/></linearGradient><path fill="url(#2~kIYcDjBjAVPnBA__RB0j)" d="M31 33H37V35H31z"/><linearGradient id="2~kIYcDjBjAVPnBA__RB0k" x1="28" x2="28" y1="7.5" y2="56.684" gradientUnits="userSpaceOnUse" spreadMethod="reflect"><stop offset="0" stop-color="#1a6dff"/><stop offset="1" stop-color="#c822ff"/></linearGradient><path fill="url(#2~kIYcDjBjAVPnBA__RB0k)" d="M23 37H33V39H23z"/><linearGradient id="2~kIYcDjBjAVPnBA__RB0l" x1="50" x2="50" y1="7.5" y2="56.684" gradientUnits="userSpaceOnUse" spreadMethod="reflect"><stop offset="0" stop-color="#1a6dff"/><stop offset="1" stop-color="#c822ff"/></linearGradient><path fill="url(#2~kIYcDjBjAVPnBA__RB0l)" d="M51,44c0-1.654-1.346-3-3-3h-1v2h1c0.552,0,1,0.448,1,1c0,0.768,0.29,1.469,0.766,2 C49.29,46.531,49,47.232,49,48c0,0.552-0.448,1-1,1h-1v2h1c1.654,0,3-1.346,3-3c0-0.552,0.448-1,1-1h1v-2h-1 C51.448,45,51,44.552,51,44z"/><linearGradient id="2~kIYcDjBjAVPnBA__RB0m" x1="42" x2="42" y1="7.5" y2="56.684" gradientUnits="userSpaceOnUse" spreadMethod="reflect"><stop offset="0" stop-color="#1a6dff"/><stop offset="1" stop-color="#c822ff"/></linearGradient><path fill="url(#2~kIYcDjBjAVPnBA__RB0m)" d="M41,44c0,0.552-0.448,1-1,1h-1v2h1c0.552,0,1,0.448,1,1c0,1.654,1.346,3,3,3h1v-2h-1 c-0.552,0-1-0.448-1-1c0-0.768-0.29-1.469-0.766-2C42.71,45.469,43,44.768,43,44c0-0.552,0.448-1,1-1h1v-2h-1 C42.346,41,41,42.346,41,44z"/></svg>