<svg xmlns="http://www.w3.org/2000/svg" viewBox="0 0 64 64" width="256" height="256"><linearGradient id="h36xmlf7nEamru_2u~R2Ya" x1="35.5" x2="35.5" y1="42.575" y2="53.979" gradientUnits="userSpaceOnUse"><stop offset="0" stop-color="#6dc7ff"/><stop offset="1" stop-color="#e6abff"/></linearGradient><path fill="url(#h36xmlf7nEamru_2u~R2Ya)" d="M32,43v7.438c0,0.498,0.365,0.932,0.86,0.986c0.707,0.076,1.397,0.248,2.059,0.513	l2.709,1.083C38.286,53.283,39,52.799,39,52.091V43l-3.5-1L32,43z"/><linearGradient id="h36xmlf7nEamru_2u~R2Yb" x1="32" x2="32" y1="6.234" y2="58.973" gradientUnits="userSpaceOnUse"><stop offset="0" stop-color="#1a6dff"/><stop offset="1" stop-color="#c822ff"/></linearGradient><path fill="url(#h36xmlf7nEamru_2u~R2Yb)" d="M51.5,25.5c0-1.277-0.841-2.419-2.504-3.403c1.156-1.549,1.493-2.926,1.001-4.104	c-0.487-1.168-1.681-1.895-3.557-2.168c0.46-1.84,0.243-3.22-0.65-4.112c-0.903-0.902-2.304-1.115-4.178-0.636	c-0.278-1.913-1.013-3.125-2.195-3.611c-1.169-0.48-2.526-0.149-4.046,0.983C34.395,6.822,33.264,6,32,6	c-1.277,0-2.418,0.843-3.401,2.509c-1.552-1.158-2.929-1.499-4.107-1.005c-1.169,0.487-1.896,1.684-2.169,3.565	c-1.842-0.463-3.222-0.247-4.111,0.643c-0.903,0.903-1.115,2.305-0.635,4.177c-1.913,0.278-3.125,1.014-3.611,2.195	c-0.479,1.164-0.147,2.521,0.986,4.044C13.323,23.104,12.5,24.235,12.5,25.5c0,1.277,0.841,2.419,2.504,3.403	c-1.156,1.549-1.493,2.926-1.001,4.104c0.486,1.167,1.681,1.894,3.557,2.168c-0.46,1.84-0.243,3.22,0.65,4.112	c0.664,0.664,1.598,0.951,2.789,0.868v14.767c0,0.972,0.482,1.855,1.324,2.425c0.565,0.383,1.225,0.578,1.892,0.578	c0.431,0,0.866-0.081,1.28-0.247l5.069-2.028c0.912-0.363,1.958-0.363,2.868,0l5.07,2.028c1.056,0.423,2.242,0.299,3.172-0.331	C42.518,56.778,43,55.895,43,54.923V40.151c1.193,0.086,2.127-0.201,2.789-0.863c0.903-0.903,1.115-2.305,0.635-4.177	c1.913-0.278,3.125-1.014,3.611-2.195c0.479-1.164,0.147-2.521-0.986-4.044C50.677,27.896,51.5,26.765,51.5,25.5z M40.555,55.691	c-0.374,0.253-0.875,0.304-1.308,0.13l-5.071-2.028c-1.382-0.552-2.968-0.553-4.353,0l-5.07,2.028	c-0.433,0.173-0.934,0.124-1.308-0.13C23.279,55.579,23,55.33,23,54.923V41.982c0.382,0.75,0.907,1.275,1.583,1.552	c1.168,0.48,2.525,0.151,4.047-0.982C29.605,44.178,30.736,45,32,45c1.277,0,2.418-0.843,3.401-2.509	c1.551,1.158,2.93,1.498,4.107,1.005c0.626-0.261,1.121-0.732,1.492-1.396v12.823C41,55.33,40.721,55.579,40.555,55.691z M47.069,27.655l-1.249,0.576l0.934,1.01c1.14,1.232,1.675,2.322,1.431,2.914c-0.249,0.604-1.418,1.004-3.129,1.071l-1.38,0.054	l0.482,1.294c0.597,1.604,0.678,2.838,0.216,3.3c-0.45,0.452-1.661,0.377-3.239-0.204l-1.293-0.475l-0.051,1.376	c-0.063,1.68-0.456,2.83-1.053,3.079c-0.601,0.25-1.712-0.294-2.972-1.46l-1.015-0.94l-0.574,1.259C33.466,42.068,32.652,43,32,43	c-0.645,0-1.45-0.908-2.153-2.43l-0.578-1.249l-1.01,0.936c-1.229,1.141-2.315,1.674-2.916,1.428	c-0.603-0.248-1.003-1.417-1.07-3.128l-0.054-1.379l-1.294,0.48c-1.606,0.597-2.838,0.677-3.3,0.216	c-0.456-0.455-0.382-1.666,0.196-3.239l0.475-1.291l-1.375-0.053c-1.675-0.064-2.823-0.458-3.072-1.053	c-0.251-0.603,0.292-1.713,1.455-2.97l0.938-1.014l-1.256-0.574C15.429,26.969,14.5,26.153,14.5,25.5	c0-0.646,0.909-1.451,2.431-2.155l1.249-0.576l-0.934-1.01c-1.14-1.232-1.675-2.322-1.431-2.915c0.248-0.604,1.418-1.003,3.129-1.07	l1.38-0.054l-0.482-1.294c-0.597-1.604-0.678-2.838-0.216-3.3c0.45-0.452,1.661-0.375,3.239,0.204l1.293,0.475l0.051-1.376	c0.063-1.68,0.456-2.83,1.053-3.079c0.6-0.248,1.712,0.294,2.972,1.46l1.015,0.94l0.574-1.259C30.534,8.932,31.348,8,32,8	c0.645,0,1.45,0.908,2.153,2.43l0.578,1.249l1.01-0.936c1.229-1.139,2.32-1.672,2.915-1.429c0.604,0.248,1.004,1.418,1.071,3.129	l0.054,1.379l1.294-0.48c1.605-0.597,2.838-0.677,3.3-0.216c0.456,0.455,0.382,1.666-0.196,3.239l-0.475,1.292l1.376,0.052	c1.674,0.063,2.823,0.457,3.071,1.053c0.251,0.603-0.292,1.713-1.455,2.97l-0.938,1.014l1.256,0.574	c1.557,0.712,2.486,1.527,2.486,2.181C49.5,26.146,48.591,26.951,47.069,27.655z"/><linearGradient id="h36xmlf7nEamru_2u~R2Yc" x1="33" x2="33" y1="18.524" y2="34.068" gradientUnits="userSpaceOnUse"><stop offset="0" stop-color="#6dc7ff"/><stop offset="1" stop-color="#e6abff"/></linearGradient><path fill="url(#h36xmlf7nEamru_2u~R2Yc)" d="M30.437,31.702c-1.025,0-2.051-0.39-2.831-1.171l-1.867-1.867	c-0.781-0.781-0.781-2.047,0-2.828l0,0c0.781-0.781,2.047-0.781,2.828,0l0.453,0.453c0.781,0.781,2.047,0.781,2.828,0l5.584-5.579	c0.781-0.781,2.047-0.781,2.828,0l0,0c0.781,0.781,0.781,2.047,0,2.828l-6.992,6.992C32.488,31.312,31.462,31.702,30.437,31.702z"/></svg>