<svg xmlns="http://www.w3.org/2000/svg" viewBox="0 0 64 64"><linearGradient id="bgRb5Xc9fBfhZeHg_ro~Za" x1="18.783" x2="18.783" y1="9.766" y2="45.344" gradientUnits="userSpaceOnUse"><stop offset="0" stop-color="#6bc5fd"/><stop offset="1" stop-color="#e4a9fd"/></linearGradient><path fill="url(#bgRb5Xc9fBfhZeHg_ro~Za)" d="M31,52v-0.136V23c0,0,0.002-2.047,0.566-3.887l-0.937-1.912	c-0.017-0.035-0.031-0.071-0.049-0.106c-0.007-0.014-0.015-0.027-0.022-0.04l-0.024-0.049l-0.001,0.004	C28.361,12.851,24.01,10,19,10c-7.168,0-13,5.832-13,13c0,18.137,18.957,31,25,31v-0.103V53V52z"/><linearGradient id="bgRb5Xc9fBfhZeHg_ro~Zb" x1="48" x2="48" y1="-871.5" y2="-880.08" gradientTransform="matrix(1 0 0 -1 0 -858)" gradientUnits="userSpaceOnUse"><stop offset="0" stop-color="#6dc7ff"/><stop offset="1" stop-color="#e6abff"/></linearGradient><path fill="url(#bgRb5Xc9fBfhZeHg_ro~Zb)" d="M52,22h-2c0-3.309-2.691-6-6-6v-2C48.41,14,52,17.59,52,22z"/><linearGradient id="bgRb5Xc9fBfhZeHg_ro~Zc" x1="44" x2="44" y1="10" y2="48.252" gradientUnits="userSpaceOnUse"><stop offset="0" stop-color="#1a6dfd"/><stop offset="1" stop-color="#c522fd"/></linearGradient><path fill="url(#bgRb5Xc9fBfhZeHg_ro~Zc)" d="M44,10c-5.398,0-10.035,3.309-12,8c-1,2-1,5-1,5v28.864V53v0.897C31.36,53.959,31.7,54,32,54	c6.043,0,25-12.863,25-31C57,15.832,51.168,10,44,10z M33,51.864V23c0-6.066,4.934-11,11-11s11,4.934,11,11	C55,39.329,38.711,50.52,33,51.864z"/></svg>
