<svg xmlns="http://www.w3.org/2000/svg" viewBox="0 0 64 64" width="256px" height="256px"><linearGradient id="5DjbFf9Z4vfiYlUNn7rQ7c" x1="32" x2="32" y1="16.333" y2="38.742" gradientUnits="userSpaceOnUse" spreadMethod="reflect"><stop offset="0" stop-color="#6dc7ff"/><stop offset="1" stop-color="#e6abff"/></linearGradient><path fill="url(#5DjbFf9Z4vfiYlUNn7rQ7c)" d="M32,38h-2v-3c0-1.654,1.346-3,3-3h2c1.654,0,3-1.346,3-3v-6c0-1.654-1.346-3-3-3h-6 c-1.654,0-3,1.346-3,3v3h-2v-3c0-2.757,2.243-5,5-5h6c2.757,0,5,2.243,5,5v6c0,2.757-2.243,5-5,5h-2c-0.551,0-1,0.448-1,1V38z"/><linearGradient id="5DjbFf9Z4vfiYlUNn7rQ7d" x1="31" x2="31" y1="41.667" y2="46.333" gradientUnits="userSpaceOnUse" spreadMethod="reflect"><stop offset="0" stop-color="#6dc7ff"/><stop offset="1" stop-color="#e6abff"/></linearGradient><path fill="url(#5DjbFf9Z4vfiYlUNn7rQ7d)" d="M31,46c-1.103,0-2-0.897-2-2s0.897-2,2-2s2,0.897,2,2S32.103,46,31,46z M31,43.999L31,43.999 L31,43.999z"/><linearGradient id="5DjbFf9Z4vfiYlUNn7rQ7b" x1="32" x2="32" y1="3" y2="61.751" gradientUnits="userSpaceOnUse" spreadMethod="reflect"><stop offset="0" stop-color="#1a6dff"/><stop offset="1" stop-color="#c822ff"/></linearGradient><path fill="url(#5DjbFf9Z4vfiYlUNn7rQ7b)" d="M32,54c-12.131,0-22-9.869-22-22s9.869-22,22-22s22,9.869,22,22S44.131,54,32,54z M32,12 c-11.028,0-20,8.972-20,20s8.972,20,20,20s20-8.972,20-20S43.028,12,32,12z"/><linearGradient id="5DjbFf9Z4vfiYlUNn7rQ7a" x1="32" x2="32" y1="3" y2="61.751" gradientUnits="userSpaceOnUse" spreadMethod="reflect"><stop offset="0" stop-color="#1a6dff"/><stop offset="1" stop-color="#c822ff"/></linearGradient><path fill="url(#5DjbFf9Z4vfiYlUNn7rQ7a)" d="M32,58C17.664,58,6,46.337,6,32S17.664,6,32,6s26,11.663,26,26S46.336,58,32,58z M32,8 C18.767,8,8,18.767,8,32s10.767,24,24,24s24-10.767,24-24S45.233,8,32,8z"/></svg>