<svg xmlns="http://www.w3.org/2000/svg" viewBox="0 0 64 64" width="256" height="256">
	<linearGradient id="_~5mNMMitfnzHYc2X8baUa" x1="20.019" x2="20.019" y1="3.998" y2="60.889"
					gradientUnits="userSpaceOnUse" spreadMethod="reflect">
		<stop offset="0" stop-color="#1a6dff"/>
		<stop offset="1" stop-color="#c822ff"/>
	</linearGradient>
	<path fill="url(#_~5mNMMitfnzHYc2X8baUa)" d="M46.352,51.34l-3.327,3.325l-1.414,-1.414l3.327,-3.325l1.414,1.414Z"/>
	<linearGradient id="_~5mNMMitfnzHYc2X8baUb" x1="23.344" x2="23.344" y1="3.998" y2="60.889"
					gradientUnits="userSpaceOnUse" spreadMethod="reflect">
		<stop offset="0" stop-color="#1a6dff"/>
		<stop offset="1" stop-color="#c822ff"/>
	</linearGradient>
	<path fill="url(#_~5mNMMitfnzHYc2X8baUb)" d="M43.025,48.014l-3.325,3.326l-1.414,-1.414l3.325,-3.326l1.414,1.414Z"/>
	<linearGradient id="_~5mNMMitfnzHYc2X8baUc" x1="26.669" x2="26.669" y1="3.998" y2="60.889"
					gradientUnits="userSpaceOnUse" spreadMethod="reflect">
		<stop offset="0" stop-color="#1a6dff"/>
		<stop offset="1" stop-color="#c822ff"/>
	</linearGradient>
	<path fill="url(#_~5mNMMitfnzHYc2X8baUc)" d="M39.7,44.688l-3.325,3.326l-1.414,-1.414l3.325,-3.326l1.414,1.414Z"/>
	<linearGradient id="_~5mNMMitfnzHYc2X8baUd" x1="32" x2="32" y1="3.998" y2="60.889" gradientUnits="userSpaceOnUse"
					spreadMethod="reflect">
		<stop offset="0" stop-color="#1a6dff"/>
		<stop offset="1" stop-color="#c822ff"/>
	</linearGradient>
	<path fill="url(#_~5mNMMitfnzHYc2X8baUd)"
		  d="M8.357,18.334l9.977,-9.977c3.14,-3.139 8.248,-3.143 11.39,0l8.314,8.313c3.141,3.141 3.141,8.25 -0,11.391l-0.956,0.956l19.245,19.246c1.077,1.077 1.671,2.51 1.671,4.032c-0,1.523 -0.594,2.956 -1.671,4.032c-1.076,1.077 -2.509,1.671 -4.032,1.671c-1.522,0 -2.955,-0.594 -4.032,-1.671l-1.663,-1.662l1.414,-1.414l1.663,1.662c1.398,1.4 3.838,1.398 5.236,0c0.699,-0.699 1.085,-1.629 1.085,-2.618c-0,-0.988 -0.386,-1.919 -1.085,-2.618l-19.245,-19.246l-1.912,1.912l17.584,17.583l-1.414,1.414l-17.583,-17.583l-1.912,1.912l5.944,5.943l-1.414,1.414l-5.944,-5.943l-0.956,0.956c-1.57,1.57 -3.633,2.355 -5.695,2.355c-2.062,0 -4.125,-0.785 -5.695,-2.355l-8.313,-8.314c-3.141,-3.141 -3.141,-8.251 -0.001,-11.391Zm1.414,9.976l8.313,8.314c2.361,2.361 6.201,2.361 8.563,-0l9.977,-9.977c2.36,-2.36 2.36,-6.202 -0,-8.563l-8.314,-8.313c-1.181,-1.18 -2.73,-1.771 -4.28,-1.771c-1.551,-0 -3.101,0.591 -4.281,1.771l-9.977,9.977c-2.361,2.36 -2.361,6.201 -0.001,8.562Z"/>
	<linearGradient id="_~5mNMMitfnzHYc2X8baUe" x1="40.801" x2="40.801" y1="3.998" y2="60.889"
					gradientUnits="userSpaceOnUse" spreadMethod="reflect">
		<stop offset="0" stop-color="#1a6dff"/>
		<stop offset="1" stop-color="#c822ff"/>
	</linearGradient>
	<path fill="url(#_~5mNMMitfnzHYc2X8baUe)"
		  d="M21.659,11.683c1.306,-1.305 3.432,-1.307 4.739,0l8.313,8.313c0.634,0.633 0.982,1.475 0.982,2.37c-0,0.895 -0.35,1.736 -0.982,2.369l-9.977,9.977c-0.633,0.633 -1.474,0.982 -2.369,0.982c-0.895,0 -1.737,-0.349 -2.37,-0.982l-8.313,-8.313c-1.307,-1.307 -1.307,-3.433 -0,-4.739l9.977,-9.977Zm-8.562,13.301l8.313,8.313c0.511,0.511 1.398,0.513 1.911,0l9.977,-9.977c0.256,-0.256 0.396,-0.595 0.396,-0.955c-0,-0.361 -0.141,-0.7 -0.396,-0.956l-8.313,-8.313c-0.264,-0.264 -0.609,-0.396 -0.956,-0.396c-0.346,0 -0.691,0.132 -0.955,0.396l-9.977,9.977c-0.527,0.528 -0.527,1.384 -0,1.911Z"/>
	<linearGradient id="_~5mNMMitfnzHYc2X8baUf" x1="40.803" x2="40.803" y1="18.748" y2="28.527"
					gradientUnits="userSpaceOnUse" spreadMethod="reflect">
		<stop offset="0" stop-color="#6dc7ff"/>
		<stop offset="1" stop-color="#e6abff"/>
	</linearGradient>
	<path fill="url(#_~5mNMMitfnzHYc2X8baUf)"
		  d="M18.209,24.86l3.325,3.325c0.459,0.459 1.204,0.459 1.663,0l4.988,-4.988c0.459,-0.459 0.459,-1.204 -0,-1.663l-3.325,-3.325c-0.459,-0.459 -1.204,-0.459 -1.663,0l-4.988,4.988c-0.459,0.46 -0.459,1.204 -0,1.663Z"/>
</svg>
