<svg version="1.1" xmlns="http://www.w3.org/2000/svg" x="0px" y="0px"
     viewBox="0 0 256 256" style="enable-background:new 0 0 256 256;" xml:space="preserve">
<style>
	.st0{fill:url(#SVGID_1_);}
	.st1{fill:url(#SVGID_2_);}
	.st2{fill:url(#SVGID_3_);}
	.st3{fill:url(#SVGID_4_);}
	.st4{fill:url(#SVGID_5_);}
	.st5{fill:url(#SVGID_6_);}
</style>
<linearGradient id="SVGID_1_" gradientUnits="userSpaceOnUse" x1="-112.7315" y1="454.252" x2="-112.7315" y2="397.361" gradientTransform="matrix(-4 0 0 -4 -275.0005 1833)">
	<stop  offset="0" style="stop-color:#1A6DFF"/>
	<stop  offset="1" style="stop-color:#C822FF"/>
</linearGradient>
<path class="st0" d="M179.8,199.7L166.4,213l5.7,5.7l13.3-13.3L179.8,199.7z"/>
<linearGradient id="SVGID_2_" gradientUnits="userSpaceOnUse" x1="-109.4055" y1="454.252" x2="-109.4055" y2="397.361" gradientTransform="matrix(-4 0 0 -4 -275.0005 1833)">
	<stop  offset="0" style="stop-color:#1A6DFF"/>
	<stop  offset="1" style="stop-color:#C822FF"/>
</linearGradient>
<path class="st1" d="M166.4,186.4l-13.3,13.3l5.7,5.7l13.3-13.3L166.4,186.4z"/>
<linearGradient id="SVGID_3_" gradientUnits="userSpaceOnUse" x1="-106.0805" y1="454.252" x2="-106.0805" y2="397.361" gradientTransform="matrix(-4 0 0 -4 -275.0005 1833)">
	<stop  offset="0" style="stop-color:#1A6DFF"/>
	<stop  offset="1" style="stop-color:#C822FF"/>
</linearGradient>
<path class="st2" d="M153.1,173.1l-13.3,13.3l5.7,5.7l13.3-13.3L153.1,173.1z"/>
<linearGradient id="SVGID_4_" gradientUnits="userSpaceOnUse" x1="-100.7501" y1="454.252" x2="-100.7501" y2="397.361" gradientTransform="matrix(-4 0 0 -4 -275.0005 1833)">
	<stop  offset="0" style="stop-color:#1A6DFF"/>
	<stop  offset="1" style="stop-color:#C822FF"/>
</linearGradient>
<path class="st3" d="M33.4,118.9l33.3,33.3c6.3,6.3,14.5,9.4,22.8,9.4s16.5-3.1,22.8-9.4l3.8-3.8l23.8,23.8l5.7-5.7l-23.8-23.8
	l7.6-7.6l70.3,70.3l5.7-5.7L135,129.4l7.6-7.6l77,77c2.8,2.8,4.3,6.5,4.3,10.5c0,4-1.5,7.7-4.3,10.5c-5.6,5.6-15.4,5.6-20.9,0
	l-6.7-6.6l-5.7,5.7l6.7,6.6c4.3,4.3,10,6.7,16.1,6.7c6.1,0,11.8-2.4,16.1-6.7c4.3-4.3,6.7-10,6.7-16.1c0-6.1-2.4-11.8-6.7-16.1
	l-77-77l3.8-3.8c12.6-12.6,12.6-33,0-45.6l-33.3-33.3c-12.6-12.6-33-12.6-45.6,0L33.4,73.3C20.9,85.9,20.9,106.3,33.4,118.9z
	 M39.1,79L79,39.1c4.7-4.7,10.9-7.1,17.1-7.1c6.2,0,12.4,2.4,17.1,7.1l33.3,33.3c9.4,9.4,9.4,24.8,0,34.3l-39.9,39.9
	c-9.4,9.4-24.8,9.4-34.3,0l-33.3-33.3C29.6,103.8,29.6,88.4,39.1,79z"/>
<linearGradient id="SVGID_5_" gradientUnits="userSpaceOnUse" x1="-91.9474" y1="454.252" x2="-91.9474" y2="397.361" gradientTransform="matrix(-4 0 0 -4 -275.0005 1833)">
	<stop  offset="0" style="stop-color:#1A6DFF"/>
	<stop  offset="1" style="stop-color:#C822FF"/>
</linearGradient>
<path class="st4" d="M46.7,86.6c-5.2,5.2-5.2,13.7,0,19L80,138.8c2.5,2.5,5.9,3.9,9.5,3.9s6.9-1.4,9.5-3.9l39.9-39.9
	c2.5-2.5,3.9-5.9,3.9-9.5s-1.4-6.9-3.9-9.5l-33.3-33.3c-5.2-5.2-13.7-5.2-19,0L46.7,86.6z M52.4,92.3l39.9-39.9
	c1.1-1.1,2.4-1.6,3.8-1.6c1.4,0,2.8,0.5,3.8,1.6l33.3,33.3c1,1,1.6,2.4,1.6,3.8c0,1.4-0.6,2.8-1.6,3.8l-39.9,39.9
	c-2.1,2.1-5.6,2-7.6,0L52.4,99.9C50.3,97.8,50.3,94.4,52.4,92.3z"/>
<linearGradient id="SVGID_6_" gradientUnits="userSpaceOnUse" x1="-91.947" y1="439.502" x2="-91.947" y2="429.723" gradientTransform="matrix(-4 0 0 -4 -275.0005 1833)">
	<stop  offset="0" style="stop-color:#6DC7FF"/>
	<stop  offset="1" style="stop-color:#E6ABFF"/>
</linearGradient>
<path class="st5" d="M72.8,92.8l20-20c1.8-1.8,4.8-1.8,6.7,0l13.3,13.3c1.8,1.8,1.8,4.8,0,6.7l-20,20c-1.8,1.8-4.8,1.8-6.7,0
	L72.8,99.4C71,97.6,71,94.6,72.8,92.8z"/>
</svg>
