<svg id="svg" version="1.1" xmlns="http://www.w3.org/2000/svg" xmlns:xlink="http://www.w3.org/1999/xlink" width="400" height="400" viewBox="0, 0, 400,400"><g id="svgg"><path id="path0" d="M183.880 38.090 C 61.782 50.091,-3.518 189.381,65.269 291.097 C 135.095 394.347,291.064 383.522,346.079 271.608 C 402.070 157.709,310.349 25.659,183.880 38.090 M211.078 50.627 C 325.020 59.492,387.829 187.552,324.817 282.529 C 262.649 376.234,123.765 370.710,68.949 272.352 C 11.463 169.203,93.343 41.467,211.078 50.627 " stroke="none" fill="#2f3238" fill-rule="evenodd"></path><path id="path1" d="" stroke="none" fill="#5e3235" fill-rule="evenodd"></path><path id="path2" d="" stroke="none" fill="#6f3235" fill-rule="evenodd"></path><path id="path3" d="" stroke="none" fill="#823234" fill-rule="evenodd"></path><path id="path4" d="" stroke="none" fill="#883234" fill-rule="evenodd"></path><path id="path5" d="" stroke="none" fill="#8a3234" fill-rule="evenodd"></path><path id="path6" d="" stroke="none" fill="#933233" fill-rule="evenodd"></path><path id="path7" d="" stroke="none" fill="#943233" fill-rule="evenodd"></path><path id="path8" d="" stroke="none" fill="#973233" fill-rule="evenodd"></path><path id="path9" d="" stroke="none" fill="#953233" fill-rule="evenodd"></path><path id="path10" d="" stroke="none" fill="#963233" fill-rule="evenodd"></path><path id="path11" d="" stroke="none" fill="#983233" fill-rule="evenodd"></path><path id="path12" d="M238.238 182.943 C 239.043 183.768,239.787 184.442,239.890 184.442 C 239.993 184.442,239.418 183.768,238.613 182.943 C 237.808 182.118,237.064 181.443,236.961 181.443 C 236.858 181.443,237.433 182.118,238.238 182.943 " stroke="none" fill="#9a3233" fill-rule="evenodd"></path><path id="path13" d="" stroke="none" fill="#9c3233" fill-rule="evenodd"></path><path id="path14" d="" stroke="none" fill="#993233" fill-rule="evenodd"></path><path id="path15" d="" stroke="none" fill="#9b3233" fill-rule="evenodd"></path><path id="path16" d="M266.896 290.440 L 265.604 291.846 267.010 290.554 C 268.319 289.352,268.588 289.035,268.302 289.035 C 268.240 289.035,267.607 289.667,266.896 290.440 " stroke="none" fill="#9d3232" fill-rule="evenodd"></path><path id="path17" d="" stroke="none" fill="#9e3232" fill-rule="evenodd"></path><path id="path18" d="" stroke="none" fill="#9f3232" fill-rule="evenodd"></path><path id="path19" d="" stroke="none" fill="#a03232" fill-rule="evenodd"></path><path id="path20" d="" stroke="none" fill="#a23232" fill-rule="evenodd"></path><path id="path21" d="" stroke="none" fill="#a13232" fill-rule="evenodd"></path><path id="path22" d="" stroke="none" fill="#a33232" fill-rule="evenodd"></path><path id="path23" d="" stroke="none" fill="#a53232" fill-rule="evenodd"></path><path id="path24" d="" stroke="none" fill="#a43232" fill-rule="evenodd"></path><path id="path25" d="M226.495 74.908 C 222.304 80.203,217.697 85.970,216.257 87.723 C 214.817 89.475,211.547 93.608,208.991 96.907 C 200.531 107.823,192.182 118.441,188.117 123.453 C 182.245 130.692,166.348 150.737,165.614 151.828 C 165.268 152.343,162.859 155.464,160.261 158.763 L 155.538 164.761 176.738 164.858 C 188.398 164.911,197.938 165.083,197.938 165.241 C 197.938 165.398,197.085 169.234,196.042 173.766 C 194.999 178.298,193.730 184.114,193.222 186.692 C 192.714 189.269,192.128 191.882,191.920 192.498 C 191.712 193.114,190.698 197.415,189.667 202.057 C 186.009 218.521,181.773 237.542,180.921 241.331 C 179.872 245.994,179.929 246.009,182.755 241.826 C 190.179 230.837,196.770 221.142,199.594 217.057 C 201.376 214.480,207.637 205.201,213.509 196.439 C 219.380 187.676,225.187 179.157,226.413 177.507 C 227.639 175.858,228.658 174.339,228.678 174.133 C 228.698 173.927,229.959 171.987,231.480 169.822 C 233.001 167.657,238.790 159.121,244.344 150.853 L 254.444 135.820 249.153 135.578 C 246.242 135.444,238.505 135.335,231.959 135.334 C 223.699 135.333,220.056 135.209,220.056 134.928 C 220.056 134.706,220.643 131.796,221.359 128.462 C 222.076 125.127,222.899 121.218,223.187 119.775 C 223.476 118.332,225.236 109.981,227.099 101.218 C 228.962 92.455,230.592 84.527,230.721 83.599 C 230.851 82.671,231.761 78.158,232.744 73.571 C 233.727 68.983,234.437 65.241,234.323 65.254 C 234.208 65.268,230.686 69.612,226.495 74.908 M129.435 165.606 C 100.446 198.578,99.363 249.195,126.915 283.346 C 144.815 305.533,169.717 316.956,200.187 316.956 C 230.220 316.956,253.206 306.663,272.014 284.794 C 300.712 251.426,300.166 198.036,270.796 165.737 L 268.956 163.715 253.972 172.062 C 245.731 176.653,238.601 180.651,238.128 180.945 C 237.272 181.479,237.281 181.494,240.322 184.743 C 261.136 206.979,260.516 246.418,239.014 267.874 C 215.008 291.829,172.523 287.776,153.996 259.763 C 138.950 237.014,141.563 202.780,159.756 184.317 C 162.388 181.646,162.962 180.694,161.938 180.694 C 161.751 180.694,154.970 176.791,146.872 172.022 C 138.773 167.252,132.037 163.288,131.903 163.213 C 131.769 163.138,130.658 164.214,129.435 165.606 " stroke="none" fill="#a73232" fill-rule="evenodd"></path><path id="path26" d="" stroke="none" fill="#a63232" fill-rule="evenodd"></path><path id="path27" d="" stroke="none" fill="#a73332" fill-rule="evenodd"></path><path id="path28" d="" stroke="none" fill="#a83332" fill-rule="evenodd"></path><path id="path29" d="M249.391 135.608 C 250.370 135.685,251.973 135.685,252.952 135.608 C 253.932 135.531,253.130 135.468,251.172 135.468 C 249.213 135.468,248.411 135.531,249.391 135.608 " stroke="none" fill="#a83432" fill-rule="evenodd"></path><path id="path30" d="" stroke="none" fill="#a93532" fill-rule="evenodd"></path><path id="path31" d="" stroke="none" fill="#a93632" fill-rule="evenodd"></path><path id="path32" d="" stroke="none" fill="#a83532" fill-rule="evenodd"></path><path id="path33" d="" stroke="none" fill="#aa3632" fill-rule="evenodd"></path><path id="path34" d="" stroke="none" fill="#aa3732" fill-rule="evenodd"></path><path id="path35" d="" stroke="none" fill="#ab3832" fill-rule="evenodd"></path><path id="path36" d="" stroke="none" fill="#ab3932" fill-rule="evenodd"></path><path id="path37" d="" stroke="none" fill="#ab3931" fill-rule="evenodd"></path><path id="path38" d="" stroke="none" fill="#ac3a31" fill-rule="evenodd"></path><path id="path39" d="" stroke="none" fill="#ae3d31" fill-rule="evenodd"></path><path id="path40" d="" stroke="none" fill="#ad3b31" fill-rule="evenodd"></path><path id="path41" d="" stroke="none" fill="#ad3c31" fill-rule="evenodd"></path><path id="path42" d="" stroke="none" fill="#ae3e31" fill-rule="evenodd"></path><path id="path43" d="" stroke="none" fill="#af3e31" fill-rule="evenodd"></path><path id="path44" d="" stroke="none" fill="#af3f31" fill-rule="evenodd"></path><path id="path45" d="" stroke="none" fill="#b04031" fill-rule="evenodd"></path><path id="path46" d="" stroke="none" fill="#b04131" fill-rule="evenodd"></path><path id="path47" d="" stroke="none" fill="#b14231" fill-rule="evenodd"></path><path id="path48" d="" stroke="none" fill="#b14331" fill-rule="evenodd"></path><path id="path49" d="" stroke="none" fill="#b34531" fill-rule="evenodd"></path><path id="path50" d="" stroke="none" fill="#b24431" fill-rule="evenodd"></path><path id="path51" d="" stroke="none" fill="#b24531" fill-rule="evenodd"></path><path id="path52" d="" stroke="none" fill="#b44731" fill-rule="evenodd"></path></g></svg>
