<svg xmlns="http://www.w3.org/2000/svg" viewBox="0 0 64 64" width="256" height="256"><linearGradient id="x3GTjvNLpZCwxNrkqRq~Da" x1="46.732" x2="46.732" y1="24" y2="40" gradientUnits="userSpaceOnUse" spreadMethod="reflect"><stop offset="0" stop-color="#6dc7ff"/><stop offset="1" stop-color="#e6abff"/></linearGradient><path fill="url(#x3GTjvNLpZCwxNrkqRq~Da)" d="M56 24L53.465 24 37.465 40 44.535 40 56 28.535z"/><linearGradient id="x3GTjvNLpZCwxNrkqRq~Db" x1="17.268" x2="17.268" y1="24" y2="40" gradientUnits="userSpaceOnUse" spreadMethod="reflect"><stop offset="0" stop-color="#6dc7ff"/><stop offset="1" stop-color="#e6abff"/></linearGradient><path fill="url(#x3GTjvNLpZCwxNrkqRq~Db)" d="M19.465 24L8 35.465 8 40 10.535 40 26.535 24z"/><linearGradient id="x3GTjvNLpZCwxNrkqRq~Dc" x1="32" x2="32" y1="24" y2="40" gradientUnits="userSpaceOnUse" spreadMethod="reflect"><stop offset="0" stop-color="#6dc7ff"/><stop offset="1" stop-color="#e6abff"/></linearGradient><path fill="url(#x3GTjvNLpZCwxNrkqRq~Dc)" d="M27.535 40L43.535 24 36.465 24 20.465 40z"/><linearGradient id="x3GTjvNLpZCwxNrkqRq~Dd" x1="32" x2="32" y1="5.25" y2="59.183" gradientUnits="userSpaceOnUse" spreadMethod="reflect"><stop offset="0" stop-color="#1a6dff"/><stop offset="1" stop-color="#c822ff"/></linearGradient><path fill="url(#x3GTjvNLpZCwxNrkqRq~Dd)" d="M55,41H9c-1.103,0-2-0.943-2-2.103V25.103C7,23.943,7.897,23,9,23h46c1.103,0,2,0.943,2,2.103 v13.794C57,40.057,56.103,41,55,41z M9.029,25C9.018,25.016,9,25.05,9,25.103v13.794c0,0.07,0.03,0.107,0.038,0.113L54.993,39 C54.976,38.997,55,38.96,55,38.897V25.103c0-0.07-0.03-0.107-0.038-0.113L9.029,25z"/><linearGradient id="x3GTjvNLpZCwxNrkqRq~De" x1="32" x2="32" y1="5.25" y2="59.183" gradientUnits="userSpaceOnUse" spreadMethod="reflect"><stop offset="0" stop-color="#1a6dff"/><stop offset="1" stop-color="#c822ff"/></linearGradient><path fill="url(#x3GTjvNLpZCwxNrkqRq~De)" d="M32,25c-5.514,0-10-4.486-10-10S26.486,5,32,5s10,4.486,10,10S37.514,25,32,25z M32,7 c-4.411,0-8,3.589-8,8s3.589,8,8,8s8-3.589,8-8S36.411,7,32,7z"/><linearGradient id="x3GTjvNLpZCwxNrkqRq~Df" x1="32" x2="32" y1="13" y2="17" gradientUnits="userSpaceOnUse" spreadMethod="reflect"><stop offset="0" stop-color="#6dc7ff"/><stop offset="1" stop-color="#e6abff"/></linearGradient><path fill="url(#x3GTjvNLpZCwxNrkqRq~Df)" d="M27 13H37V17H27z"/><linearGradient id="x3GTjvNLpZCwxNrkqRq~Dg" x1="32" x2="32" y1="5.25" y2="59.183" gradientUnits="userSpaceOnUse" spreadMethod="reflect"><stop offset="0" stop-color="#1a6dff"/><stop offset="1" stop-color="#c822ff"/></linearGradient><path fill="url(#x3GTjvNLpZCwxNrkqRq~Dg)" d="M17 48H47V50H17z"/><linearGradient id="x3GTjvNLpZCwxNrkqRq~Dh" x1="14.5" x2="14.5" y1="7.938" y2="59.174" gradientUnits="userSpaceOnUse" spreadMethod="reflect"><stop offset="0" stop-color="#1a6dff"/><stop offset="1" stop-color="#c822ff"/></linearGradient><path fill="url(#x3GTjvNLpZCwxNrkqRq~Dh)" d="M16,40l0.001,17H13V40h-2v17c0,1.103,0.897,2,2,2h3c1.103,0,2-0.897,2-2V40H16z"/><linearGradient id="x3GTjvNLpZCwxNrkqRq~Di" x1="49.5" x2="49.5" y1="7.938" y2="59.174" gradientUnits="userSpaceOnUse" spreadMethod="reflect"><stop offset="0" stop-color="#1a6dff"/><stop offset="1" stop-color="#c822ff"/></linearGradient><path fill="url(#x3GTjvNLpZCwxNrkqRq~Di)" d="M51,40l0.001,17H48V40h-2v17c0,1.103,0.897,2,2,2h3c1.103,0,2-0.897,2-2V40H51z"/></svg>