<svg xmlns="http://www.w3.org/2000/svg" viewBox="0 0 100 100">
    <circle cx="88.12" cy="46.29" r="8.02" fill="#d80227"/>
    <path fill="#eee" d="M92.3 44.9h-2.78v-2.8h-2.8v2.79h-2.78v2.79h2.78v2.78h2.8V47.7h2.78v-2.8Z"/>
    <path fill="#ffda44" d="m28.52 17.7 8.46.05 8.46-.05a9 9 0 0 1-16.92 0Z"/>
    <path fill="#d80027" d="M27.98 14.63c0-1.12.2-2.2.58-3.18l8.42.05 8.42-.05a8.97 8.97 0 0 1 .02 6.3H28.54a8.96 8.96 0 0 1-.56-3.12Z"/>
    <path fill="#333" d="M28.54 11.5a9 9 0 0 1 16.88 0H28.54Z"/>
    <path fill="#ffda44" d="M66.94 22c0-1.37.38-2.66 1.05-3.75l6.2-.78 6.2.78a7.22 7.22 0 0 1 0 7.51H68A7.22 7.22 0 0 1 66.94 22Z"/>
    <path fill="#d80027" d="M67.91 18.38a7.25 7.25 0 0 1 12.57 0H67.9Zm0 7.25h12.57a7.26 7.26 0 0 1-12.57 0Z"/>
    <g fill="#eee">
        <path d="M71.02 23.37h-.45V21.1h.45v2.27Zm3.63 0h.45V21.1h-.45v2.27Z"/>
        <ellipse cx="72.83" cy="23.14" rx="1.36" ry=".91"/>
    </g>
    <g fill="#d80027">
        <path d="M71.02 20.42a.23.23 0 0 0-.45 0v.22a.23.23 0 0 0 .45 0v-.22Zm4.08 0a.23.23 0 0 0-.45 0v.22a.23.23 0 0 0 .45 0v-.22Z"/>
        <path d="M72.83 22.46v.68c0 .37.31.68.68.68.38 0 .68-.3.68-.68v-.68h-1.36Z"/>
    </g>
    <path fill="#ff9811" d="M70.34 20.64h.91v.45h-.91zm4.08 0h.91v.45h-.91zm-3.17 2.96c0-.13-.1-.23-.23-.23h-.45c-.13 0-.23.1-.23.22 0 .13.1.23.23.23h.45c.13 0 .23-.1.23-.23Zm4.08 0c0-.13-.1-.23-.23-.23h-.45a.23.23 0 1 0 0 .45h.45c.13 0 .23-.1.23-.23Z"/>
    <path fill="#ff9811" d="M71.47 22.46v.68c0 .23.12.4.26.54l.14-.17.14.28c.1.02.2.02.28 0l.15-.28.14.17a.66.66 0 0 0 .25-.54v-.68h-.25l-.14.22-.14-.22H72l-.14.22-.14-.22h-.26Z"/>
    <path d="M70.4 21.9h4.87m-4.87.67h.79m3.29 0h.8"/>
    <path fill="#d80027" d="M70.4 21.78a.11.11 0 0 0-.12.11c0 .06.05.11.12.11h4.87c.06 0 .11-.05.11-.1a.11.11 0 0 0-.1-.12H70.4Zm0 .68a.11.11 0 0 0-.12.11c0 .06.05.11.12.11h.79c.06 0 .11-.05.11-.1a.11.11 0 0 0-.11-.12h-.8Zm4.08 0a.11.11 0 0 0-.12.11c0 .06.06.11.12.11h.8a.1.1 0 0 0 .1-.1.11.11 0 0 0-.1-.12h-.8Z"/>
    <path fill="#eee" d="M72.5 19.51c-.2 0-.38.14-.43.31l-.14-.02a.45.45 0 1 0 0 .9c.2 0 .36-.11.42-.31.17.06.36.02.48-.11.13.13.32.17.48.11a.45.45 0 0 0 .89-.14.46.46 0 0 0-.6-.43.45.45 0 0 0-.77-.14.4.4 0 0 0-.34-.17Zm0 .23c.14 0 .22.11.22.23 0 .14-.08.22-.23.22a.22.22 0 0 1-.22-.23c0-.1.11-.22.22-.22Zm.67 0c.14 0 .23.11.23.23 0 .14-.09.22-.23.22a.22.22 0 0 1-.22-.23c0-.1.11-.22.22-.22Zm-1.24.28.11.03.11.23c0 .11-.11.2-.22.2a.22.22 0 0 1-.23-.23c0-.11.11-.23.23-.23Zm1.81 0c.14 0 .23.12.23.23 0 .14-.09.23-.23.23-.11 0-.23-.09-.23-.2l.12-.23.11-.03Z"/>
    <path fill="none" d="M73.17 22.8v.34c0 .2.14.34.34.34s.34-.14.34-.34v-.34h-.68Z"/>
    <path fill="#ff9811" d="M72.61 19.29h.45v.91h-.45z"/>
    <path fill="#eee" d="M72.83 21.1h1.36v1.36h-1.36z"/>
    <path fill="#d80027" d="m73.97 20.64-.23.23h-1.81l-.23-.23c0-.36.51-.68 1.13-.68.63 0 1.14.32 1.14.68Zm-2.5.46h1.36v1.36h-1.36V21.1Z"/>
    <path fill="#d80027" d="M73.8 21.6a.28.28 0 1 0-.57 0v.35a.28.28 0 0 0 .57 0v-.34Z"/>
    <path fill="#ff9811" d="M71.7 21.32v.23h.23V22h-.23v.23h.9V22h-.22v-.45h.23v-.23h-.91Zm.23-.45h1.81v.23h-1.81v-.23Z"/>
    <g fill="#ffda44">
        <circle cx="72.21" cy="20.48" r=".17"/>
        <circle cx="72.83" cy="20.48" r=".17"/>
        <circle cx="73.46" cy="20.48" r=".17"/>
    </g>
    <path fill="#d80027" d="M71.73 22.46v1.22c.08.06.18.1.28.11v-1.33h-.28Zm.56 0v1.33a.8.8 0 0 0 .29-.11v-1.22h-.28Z"/>
    <g fill="#338af3">
        <circle cx="72.83" cy="22.46" r=".45"/>
        <path d="M74.42 23.82h.91v.45h-.91zm-4.08 0h.91v.45h-.91z"/>
    </g>
    <circle cx="82.13" cy="71.55" r="6.3" fill="#eee"/>
    <path fill="#333" d="m84.45 73.5.59-.6.4.4-.6.56-.4-.37Zm-.96.95.59-.59.37.4-.57.58-.4-.39Zm2.14.2.56-.6.4.4-.6.6-.36-.4Zm-.99.96.6-.57.39.37-.6.6-.39-.4Zm.4-1.55.59-.57.37.37-.57.6-.4-.4Zm-.96.98.56-.59.4.4-.6.56-.36-.37Zm1.55-5.44-1.55-1.55.37-.37 1.57 1.55-.4.37Zm-1.55-.37-.6-.6.4-.38.57.59-.37.39Zm.96.96-.6-.59.4-.37.6.57-.4.4Zm.2-2.14-.6-.57.4-.4.59.6-.4.37Zm.95.98-.56-.59.37-.4.59.6-.4.4Zm-8.12 5.03 1.55 1.55-.4.4-1.55-1.56.4-.4Zm1.55.4.57.58-.37.37-.6-.56.4-.4Zm-.98-.97.59.57-.4.4-.56-.6.37-.37Zm.59-.59 1.55 1.55-.4.4-1.55-1.56.4-.39Zm.39-5.42-1.55 1.55-.4-.4 1.56-1.54.39.4Zm.57.57-1.55 1.55-.37-.4 1.55-1.55.37.4Zm.59.59-1.55 1.55-.4-.4 1.55-1.55.4.4Z"/>
    <path fill="#d80027" d="m83.68 73.1-3.1-3.1a2.19 2.19 0 1 1 3.1 3.1Z"/>
    <path fill="#0052b4" d="M83.68 73.1a2.2 2.2 0 0 1-3.1-3.1l3.1 3.1Z"/>
    <circle cx="81.36" cy="70.77" r="1.1" fill="#d80027"/>
    <circle cx="82.91" cy="72.32" r="1.1" fill="#0052b4"/>
    <circle cx="13.47" cy="62.85" r="9.09" fill="#eee"/>
    <path fill="#d80027" d="M21.35 58.3h-9.02v-2.27h7.15a9.14 9.14 0 0 1 1.87 2.27Zm1.21 4.55h-9.09l-1.13-2.27h9.94c.18.72.28 1.48.28 2.27Zm-17.9 2.27h17.62c-.21.8-.53 1.57-.93 2.27H5.6a8.54 8.54 0 0 1-.93-2.27Zm2.8 4.55h12.02a9.06 9.06 0 0 1-12.02 0Z"/>
    <path fill="#0052b4" d="M4.38 62.85a9.1 9.1 0 0 1 9.1-9.1v9.1h-9.1Z"/>
    <path fill="#eee" d="m6.15 57.45.2.6h.94l-.76.55.3.91-.78-.56-.78.56.3-.9-.1-.08c.2-.38.43-.73.68-1.08Zm2.98-2.6.1.3h.94l-.76.54.3.9-.79-.55-.78.56.3-.91-.29-.21c.31-.23.64-.44.98-.62Zm-.5 6.08.3-.92.3.92h.94l-.76.55.3.9-.79-.55-.78.56.3-.91-.76-.55h.94Zm-2.89 0 .3-.92.31.92h.94l-.76.55.3.9-.78-.55-.78.56.3-.91-.77-.55h.95Zm5.76-2.88.3-.92.3.92h.95l-.77.55.3.91-.78-.56-.78.56.3-.9-.76-.56h.94Zm-2.88 0 .3-.92.3.92h.95l-.76.55.3.91-.79-.56-.78.56.3-.9-.76-.56h.94Zm2.88-2.9.3-.93.3.92h.95l-.77.55.3.9-.78-.55-.78.56.3-.91-.76-.55h.94Zm0 5.78.3-.92.3.92h.95l-.77.55.3.9-.78-.55-.78.56.3-.91-.76-.55h.94Z"/>
    <circle cx="14.57" cy="36.48" r="6.12" fill="#eee"/>
    <path fill="#0052b4" d="M8.45 36.48c0-.27.02-.54.05-.8h3.14V31.1c.5-.27 1.03-.47 1.6-.6v5.18h7.4a6.2 6.2 0 0 1 0 1.6h-7.4v5.17a6.08 6.08 0 0 1-1.6-.6v-4.58H8.5a6.18 6.18 0 0 1-.05-.8Z"/>
    <path fill="#eee" d="m52.25 95.9-1.18-10.02 1.18-10.24a10.8 10.8 0 0 1 7.7 0l1.02 9.97-1.03 10.3a10.78 10.78 0 0 1-7.69 0Z"/>
    <path fill="#0052b4" d="M45.27 85.77c0-4.66 2.94-8.63 7.06-10.16v20.32a10.84 10.84 0 0 1-7.06-10.16Z"/>
    <path fill="#d80027" d="M59.87 75.6a10.85 10.85 0 0 1 0 20.33V75.61Z"/>
    <circle cx="25.57" cy="83.7" r="6.5" fill="#6da544"/>
    <path fill="#ffda44" d="m25.57 79.75 5.37 3.95-5.37 3.96-5.37-3.95 5.37-3.96Z"/>
    <path fill="#eee" d="M23.5 82.82c-.13.29-.2.6-.19.92L27.42 85c.18-.26.3-.55.37-.86-1.03-1.66-3.04-2.04-4.3-1.32Z"/>
    <path fill="#0052b4" d="M25.56 81.45a2.26 2.26 0 0 0-2.07 1.37 4.62 4.62 0 0 1 4.3 1.32 2.26 2.26 0 0 0-2.23-2.7Zm-1.1 2.11c-.4 0-.78.06-1.15.18a2.26 2.26 0 0 0 4.1 1.26 3.84 3.84 0 0 0-2.96-1.44Z"/>
    <path fill="#034ce2" d="M47.24 66c-.02.02-.04.02-.06.02a.6.6 0 0 0 .1 0l.08-.02s.03-.02 0-.03a.3.3 0 0 0-.12.03Zm.43-.32c-.14-.01-.24.09-.26.16-.01.12.17.06.26 0 .08-.06.1-.13 0-.16Zm1.01-.42c-.22-.03-.45.15-.46.28-.02.15.27.08.44-.03.13-.1.18-.22.02-.25Zm-.68-.12c-.2-.03-.35.13-.34.27.02.18.28.15.42 0 .09-.1.09-.23-.08-.27Zm2.15-.46c-.29-.04-.62.21-.64.38-.04.19.34.13.6-.05.17-.13.23-.29.04-.33Zm-.87-.16c-.3-.03-.54.2-.53.38 0 .23.37.18.58-.03.14-.13.16-.3-.05-.35Zm-1.34.21c.05.26.42.22.58 0 .1-.14.06-.32-.15-.37-.27-.03-.47.18-.43.37Zm4.02-.8c-.34-.04-.77.3-.78.5 0 .22.43.13.72-.09.2-.16.29-.35.06-.4Zm-1.01-.17c-.35-.05-.7.28-.69.49.02.25.47.17.72-.07.18-.17.21-.37-.02-.42ZM50 64c.14-.16.13-.37-.12-.43-.36-.05-.63.26-.6.48.04.29.51.22.73-.04Zm-1.03-.17c.1-.18.06-.4-.21-.46-.34-.04-.57.22-.51.46.07.32.54.31.72 0Zm3.96-.99c-.4-.05-.8.33-.8.58-.01.28.48.23.8-.09.18-.16.28-.42 0-.5Zm-1.09.3c.15-.17.21-.44-.1-.51-.4-.05-.74.31-.73.56.01.32.54.29.83-.05Zm-1.17-.21c.12-.17.14-.45-.19-.52-.4-.05-.71.29-.65.57.07.34.6.3.84-.05Zm4.42-1.16c-.44-.05-.9.42-.88.7.03.29.54.2.87-.14.19-.2.3-.49 0-.56Zm-1.25-.22c-.45-.05-.85.4-.82.67.04.34.59.28.9-.1.17-.2.25-.5-.08-.57Zm-1.17.35c.14-.2.18-.5-.17-.59-.43-.05-.8.33-.77.65.05.38.65.34.94-.06Zm-1.34-.24c.14-.23.1-.52-.25-.6-.46-.06-.8.34-.7.66.1.39.7.35.95-.06Zm-1.41-.25c.1-.23.02-.53-.34-.61-.47-.06-.76.34-.63.67.16.4.77.36.97-.06Zm7.4-.87c-.43-.05-.91.49-.9.8.03.32.55.21.89-.18.18-.21.3-.54.01-.62Zm-1.25-.22c-.46-.05-.88.45-.86.76.02.37.6.3.93-.13.17-.21.26-.55-.07-.63Zm-1.22.41c.16-.22.2-.56-.15-.65-.47-.05-.9.42-.83.77.08.37.68.3.98-.13Zm-1.39-.25c.13-.22.15-.57-.24-.66-.47-.06-.86.38-.79.73.09.43.75.38 1.03-.07Zm-1.49-.26c.13-.27.06-.59-.32-.68-.5-.06-.85.38-.74.74.14.44.82.4 1.06-.06ZM50 59.25c-.52-.06-.83.38-.68.75.2.45.87.42 1.07-.06.11-.27.02-.6-.39-.69Zm-1.24.4c.06-.21 0-.6-.47-.7-.53-.07-.8.38-.61.76.23.45.92.41 1.08-.06Zm8.34-.25c.16-.23.22-.6-.13-.69-.47-.05-.9.46-.85.84.07.42.68.33.99-.14Zm-1.61-.95c-.5-.06-.92.46-.82.85.11.42.75.34 1.04-.14.14-.24.17-.62-.22-.71Zm-1.29.45c.12-.25.11-.63-.3-.73-.52-.06-.9.41-.8.8.12.48.82.43 1.1-.08Zm-1.63-.3c.1-.22.1-.62-.37-.73-.54-.07-.9.41-.76.81.17.49.9.44 1.13-.07Zm-2.14-1.04c-.57-.07-.9.41-.72.81.2.5.96.45 1.16-.06.09-.23.04-.64-.44-.75Zm-1.34.44c.07-.24 0-.66-.5-.77-.58-.07-.88.42-.68.83.26.5 1.01.46 1.18-.07Zm14.11 1.2c.04-.02.26-.34.36-.51 0 0 .37-.58.36-.66a5.55 5.55 0 0 0-.73 1.17Zm-.03-1.3c-.26 0-.8.87-.75 1.11.03.17.32-.04.56-.42.17-.26.34-.64.2-.69Zm-8.31-.74c.12-.27.1-.68-.35-.78-.55-.07-.95.5-.78.92.2.47.9.38 1.13-.14Zm-1.72-.31c.11-.26.05-.68-.42-.79-.57-.07-.93.45-.77.88.19.51.97.46 1.2-.09Zm-2.29-1.12c-.58-.07-.94.45-.75.88.23.54 1.02.49 1.23-.08.09-.25.03-.68-.48-.8Zm13.39 1.71h.01c.07-.07.27-.47.3-.55 0 0 .3-.63.28-.71-.08.03-.6 1.12-.59 1.26Zm.13-.58c.14-.28.28-.69.2-.73-.22.01-.68 1.11-.6 1.25.04.08.23-.16.4-.52Zm-.42-.08c.13-.27.25-.69.1-.74-.27 0-.7.94-.63 1.2.06.19.33-.05.53-.46Zm-.65-.11c.13-.28.22-.7.01-.76-.34-.02-.76.85-.65 1.17.09.25.42.03.63-.41Zm-12.04-2.89c-.63-.07-1 .55-.74 1 .29.52 1.06.43 1.25-.15.1-.28 0-.73-.51-.85Zm-4.05-.71c-.63-.08-.94.55-.66 1 .31.52 1.08.43 1.23-.14a.7.7 0 0 0-.57-.86Zm17.86 2.46h.01c.07-.07.2-.5.24-.59 0 0 .21-.67.18-.76a5.78 5.78 0 0 0-.43 1.35Zm.16-1.4c-.22.02-.53 1.2-.45 1.34.06.1.22-.16.35-.56.1-.3.2-.73.1-.77Zm-.53.7c.1-.3.17-.73 0-.79-.26 0-.6 1-.48 1.3.09.19.32-.06.47-.5Zm-.74-.92c-.35-.02-.68.9-.53 1.25.12.27.43.03.6-.44.1-.3.14-.74-.07-.8Zm-12.3-2.17a.72.72 0 0 0-.75 1.04c.3.54 1.1.44 1.28-.15a.7.7 0 0 0-.53-.89Zm-1.5.53a.71.71 0 0 0-.56-.9c-.67-.07-1.03.58-.75 1.05.32.54 1.14.45 1.31-.15Zm-4.62-1.61c-.61-.07-.93.59-.66 1.06a.65.65 0 0 0 1.21-.17.73.73 0 0 0-.55-.89Zm-1.88-.33c-.6-.07-.9.66-.58 1.12.31.48.98.34 1.1-.23.07-.3-.05-.78-.52-.89Zm22.26 1.74c-.07.04-.3 1.28-.25 1.43.06-.08.14-.54.16-.63 0-.03.13-.71.1-.8Zm-.27-.05c-.21.02-.38 1.26-.28 1.41.07.1.2-.18.28-.6.06-.3.1-.76 0-.8Zm-.52-.09c-.3 0-.48 1.15-.32 1.39.11.15.3-.12.4-.56.06-.31.08-.77-.08-.83Zm-.76-.13c-.36-.02-.57 1.04-.36 1.35.15.22.41-.04.52-.51.06-.31.06-.77-.16-.84Zm-13.83-1.63a.72.72 0 0 0-.57-.91c-.73-.1-1.02.62-.76 1.07a.73.73 0 0 0 1.33-.16ZM44.5 49.1c.09-.3-.01-.78-.48-.89-.62-.07-.95.67-.66 1.14.3.5.98.35 1.14-.24Zm-2.25-1.2c-.58-.07-.9.68-.63 1.15.27.48.91.33 1.07-.26.08-.3 0-.79-.44-.9ZM66 51.37c.05-.08.07-.54.08-.63 0-.03.03-.7-.02-.78a5.3 5.3 0 0 0-.06 1.41Zm-.1-.67c.01-.3 0-.75-.1-.8-.2.02-.22 1.26-.1 1.4.08.1.16-.17.2-.6Zm-.45-.07c.03-.3 0-.76-.17-.81-.3 0-.33 1.13-.14 1.37.13.16.28-.11.31-.56ZM48.83 47.7a.7.7 0 0 0-.54-.88.71.71 0 0 0-.75 1.04c.3.54 1.12.44 1.3-.16Zm-2-.35c.09-.3 0-.76-.5-.87a.73.73 0 0 0-.74 1.03c.26.54 1.05.44 1.24-.16Zm-1.91-.34c.1-.3.01-.75-.45-.86-.62-.07-.98.62-.7 1.1.26.47.97.33 1.15-.24Zm-2.19-1.17c-.58-.07-.94.63-.7 1.1.24.47.9.32 1.09-.25.1-.29.04-.75-.4-.85Zm-1.62-.28c-.53-.06-.88.64-.67 1.1.2.47.81.32 1-.26.1-.3.07-.75-.33-.84Zm24.56 2.28h-.01c-.15.05-.05 1.27.1 1.38.08.05.13-.22.1-.6-.02-.3-.09-.74-.19-.78Zm-.44 1.27c.13.1.22-.16.2-.57 0-.3-.1-.74-.26-.8h-.02c-.23.04-.17 1.18.08 1.37Zm-15.27-2.93c.3.53 1.13.45 1.3-.14a.69.69 0 0 0-.57-.84c-.65-.09-1 .52-.73.98Zm-1.25-1.33c-.63-.08-1 .52-.75.98.28.53 1.09.44 1.27-.14a.65.65 0 0 0-.52-.84Zm-1.9-.34c-.6-.07-.98.53-.76.98.25.52 1.02.43 1.22-.15.1-.28.02-.72-.46-.83ZM45 44.2c-.57-.08-.95.53-.76.97.21.52.96.41 1.17-.16.1-.27.05-.71-.4-.82Zm-1.68-.3c-.55-.07-.95.6-.75 1.03.21.45.87.31 1.08-.23.11-.27.08-.7-.33-.8Zm-1.57-.28c-.5-.06-.9.61-.74 1.03.17.44.79.3 1.01-.23.12-.28.11-.7-.27-.8Zm-1.41-.25c-.5-.05-.9.68-.73 1.08.17.38.7.2.92-.3.13-.27.14-.7-.2-.78Zm25.5 3.84a3 3 0 0 0-.1-.6c-.05-.28-.16-.7-.2-.74-.04.03.2 1.21.29 1.34Zm-.28-.05c.08.05.09-.2.02-.58-.06-.28-.18-.7-.28-.75h-.02c-.13.05.12 1.24.28 1.34Zm-.52-.1c.13.1.2-.15.13-.55-.05-.28-.2-.71-.35-.77h-.02c-.21.04-.01 1.14.24 1.32Zm-10.31-3.09c-.6-.08-.85.58-.52 1 .34.46 1 .33 1.08-.2a.72.72 0 0 0-.56-.8Zm-2.45.62c.31.5 1.07.42 1.19-.14a.69.69 0 0 0-.55-.8.62.62 0 0 0-.64.94Zm-.71-.48a.66.66 0 0 0-.54-.8c-.62-.08-.96.5-.7.93.3.51 1.09.43 1.24-.13Zm-2.42-1.13c-.61-.07-.97.5-.74.92.25.5 1.04.41 1.22-.13a.6.6 0 0 0-.48-.79Zm-1.81-.32c-.57-.07-.96.5-.77.92.22.48.98.4 1.18-.14.1-.26.04-.67-.41-.78Zm-1.72-.3c-.54-.07-.95.5-.8.91.19.5.92.4 1.15-.14.1-.26.07-.67-.35-.77ZM44 42.08c-.52-.07-.95.55-.78.96.18.42.83.3 1.07-.21.12-.26.11-.66-.28-.75Zm-1.28.47c.13-.25.16-.65-.2-.74-.49-.05-.93.57-.8.96.13.42.75.29 1-.22Zm-1.55-.97c-.47-.05-.93.62-.8 1 .13.35.67.2.93-.28.14-.25.19-.64-.13-.72Zm24.2 3.65c0-.06-.1-.4-.17-.58-.1-.31-.25-.67-.29-.7 0 .07.39 1.27.46 1.28Zm-.27-.05c.09.05.06-.2-.06-.55-.09-.28-.26-.68-.36-.72h-.01c-.11.05.27 1.18.44 1.27Zm-9-1.72c.35.38.87.23.88-.26.02-.25-.15-.66-.56-.75h-.06c-.48-.04-.65.6-.27 1Zm-1.3-1.3h-.05c-.49-.04-.73.53-.4.95.34.43.95.31 1-.2a.71.71 0 0 0-.55-.74Zm-1.69-.29c-.56-.07-.83.48-.58.88.3.47 1.02.38 1.11-.13a.66.66 0 0 0-.53-.75Zm-1.76-.31c-.57-.08-.9.46-.66.86.28.47 1.03.4 1.17-.12a.61.61 0 0 0-.5-.74Zm-1.76-.32c-.56-.07-.92.47-.72.86.24.46.99.39 1.16-.12a.56.56 0 0 0-.44-.73Zm-1.69-.29c-.54-.07-.93.46-.77.84.2.46.93.38 1.14-.12.1-.24.05-.63-.37-.72Zm-1.6-.29c-.52-.06-.93.47-.8.84.14.45.84.37 1.09-.13.11-.24.1-.61-.3-.7Zm-1.51-.26c-.48-.06-.92.46-.84.83.1.44.78.35 1.05-.14.13-.23.15-.6-.21-.7Zm-1.26.43c.15-.23.2-.6-.13-.68-.47-.05-.94.52-.85.88.1.39.7.27.98-.2Zm-1.34-.23c.15-.24.24-.6-.06-.67-.42-.04-.9.52-.86.87.05.38.6.26.92-.2Zm22.09 2.16c-.15-.3-.35-.64-.44-.67-.1.05.46 1.19.59 1.2.06.02-.01-.22-.16-.53Zm-.85-.74h-.01c-.16.03.33 1.1.56 1.2.11.05.09-.19-.06-.52-.13-.3-.36-.64-.49-.68Zm-7.34-.29c.34.3.77.15.75-.28 0-.23-.18-.6-.56-.7h-.1c-.42.02-.49.63-.1.98Zm-.75-.54a.7.7 0 0 0-.53-.7h-.05c-.45-.03-.65.5-.33.88.32.4.88.28.91-.18Zm-1.58-.28a.63.63 0 0 0-.5-.69h-.06c-.47-.04-.72.47-.43.86.31.39.92.29 1-.17Zm-2.11-.97c-.53-.07-.83.43-.62.79.26.44.96.37 1.08-.11.06-.23-.04-.59-.46-.68Zm-1.61-.29c-.52-.06-.86.43-.69.78.21.44.9.37 1.08-.1a.5.5 0 0 0-.4-.68Zm-1.55-.27c-.5-.06-.88.42-.75.77.17.42.85.35 1.06-.11.1-.22.08-.57-.31-.66Zm-1.24.38c.12-.21.13-.55-.23-.64-.47-.06-.89.42-.8.76.11.41.78.34 1.03-.12Zm-1.6-.88c-.45-.05-.9.41-.85.75.06.4.7.32 1-.13.13-.2.18-.54-.15-.62Zm-1.21.39c.15-.21.23-.54-.07-.62-.43-.05-.93.46-.88.79.06.34.64.24.95-.17Zm-1.24-.22c.15-.2.3-.53.02-.6-.42-.04-.96.5-.9.82.04.3.55.17.88-.22Zm-1.11-.2c.17-.19.35-.52.1-.58-.37-.04-.93.5-.93.81 0 .3.48.16.83-.23Zm21.64 2.7a5.32 5.32 0 0 0-.75-1.12s.69 1.11.75 1.12Zm-5.39-1.92c-.31.09-.07.8.34 1.01.28.15.45-.04.35-.37-.06-.23-.3-.57-.59-.64h-.1Zm-3.09-.03a.67.67 0 0 0-.51-.63.7.7 0 0 0-.1 0c-.38.01-.49.51-.17.83.32.33.78.2.78-.2Zm-1.43-.25a.59.59 0 0 0-.47-.62h-.05c-.4-.04-.63.43-.36.77.29.36.83.27.88-.15Zm-1.9-.87c-.47-.06-.75.38-.56.7.23.4.87.34.98-.1.05-.2-.05-.52-.42-.6Zm-3.96-.16c.12-.2.15-.5-.17-.57-.42-.05-.84.37-.78.67.07.36.7.3.95-.1Zm-1.31-.23c.13-.18.23-.48-.08-.56-.42-.05-.9.4-.84.7.06.32.63.23.92-.14Zm-2.11-.07c.01.3.56.21.88-.15.16-.17.3-.47.01-.54-.39-.04-.9.4-.9.69Zm-1.08-.16c.01.27.5.16.85-.19.16-.17.34-.46.1-.52-.39-.04-.96.44-.95.71Zm-.96-.14c.01.22.45.1.8-.22.19-.17.4-.45.19-.51-.36-.04-.99.48-.98.73Zm-.81-.12c0 .18.4.04.75-.26.2-.16.44-.44.26-.49-.32-.03-1.02.53-1.01.75Zm.37-.86c-.3-.02-1.05.58-1.05.77 0 .13.35-.01.7-.3.2-.16.48-.43.35-.47Zm-.93.37c.22-.16.52-.43.43-.46-.24 0-1.06.64-1.07.78 0 .1.3-.05.64-.32Zm.1-.51c-.17 0-1.1.69-1.08.8.05.03.52-.32.58-.36.02-.01.5-.38.5-.45Zm20.17 2.69a2.1 2.1 0 0 0-.62-.58h-.03c-.11.08.6.98.8 1 .1.03.03-.17-.16-.42Zm-.49.31c.13.03.09-.16-.09-.41-.16-.25-.45-.54-.62-.58h-.05c-.13.13.5.95.76 1Zm-2.53-.84c-.09-.2-.33-.52-.6-.58h-.08c-.26.1.08.78.46.93.24.1.34-.07.22-.35Zm-1.36.14c.27.13.44-.03.34-.32-.06-.2-.28-.5-.56-.57h-.1c-.3.07-.07.7.32.89Zm-3.19-.95a.54.54 0 0 0-.43-.54h-.04c-.36-.03-.54.38-.3.68.25.32.73.23.77-.14Zm-2.16-.14c.2.35.77.29.86-.09a.45.45 0 0 0-.37-.53c-.41-.05-.65.34-.49.62Zm-.75-.84c-.4-.05-.7.33-.59.6.15.34.72.28.87-.08.07-.17.03-.45-.28-.52Zm-1 .3c.1-.17.1-.44-.19-.5-.39-.06-.75.31-.68.58.1.33.66.28.87-.09Zm-1.22-.22c.11-.15.19-.42-.1-.49-.37-.04-.78.32-.76.58.03.32.6.26.86-.09Zm-1.99-.08c.02.28.54.2.84-.12.14-.15.26-.41 0-.47-.38-.05-.86.34-.84.59Zm-.23-.31c.16-.15.32-.4.09-.46-.35-.04-.88.34-.9.58-.04.27.47.2.81-.12Zm-.8-.61c-.34-.04-.94.37-.97.6-.03.22.43.13.8-.16.17-.15.37-.39.17-.44Zm-.79-.15c-.3-.02-.99.4-1.02.62-.04.19.39.08.76-.19.2-.14.43-.38.26-.42Zm-.68-.11c-.27-.03-1.03.42-1.07.63-.03.15.34.03.73-.22.22-.14.48-.37.34-.41Zm-1.67.54c-.03.11.31 0 .7-.24.15-.1.53-.36.41-.4-.24-.02-1.07.46-1.11.64Zm-.46-.07c-.02.08.27-.04.65-.26 0 0 .59-.35.5-.39-.2 0-1.11.51-1.15.65Zm-.31-.03a3 3 0 0 0 .6-.3 3.65 3.65 0 0 0 .57-.37 4.2 4.2 0 0 0-1.17.67Zm16.61.94c-.12.1.54.82.78.86.13.02.08-.14-.1-.36a1.77 1.77 0 0 0-.64-.5h-.04Zm-.62-.12h-.06c-.16.1.42.8.7.85.14.02.13-.13-.03-.35-.15-.2-.42-.46-.61-.5Zm-.75-.14h-.06c-.18.08.2.72.56.83.2.05.23-.1.09-.33-.13-.2-.39-.45-.59-.5Zm-.81-.14-.1.01c-.18.1.08.64.44.78.22.09.32-.06.2-.3-.08-.16-.3-.43-.55-.49Zm-3.04.11c.24.25.6.16.6-.14a.46.46 0 0 0-.37-.46h-.06c-.27 0-.42.35-.17.6Zm-1.81-.96c-.34-.05-.61.27-.53.5.1.28.6.23.74-.07.07-.15.05-.38-.21-.43Zm-.86.24c.1-.14.12-.36-.12-.42-.33-.04-.67.27-.63.49.04.28.54.23.75-.07Zm-1.99-.36c.13-.11.27-.32.06-.38-.32-.03-.8.28-.81.48-.02.22.41.2.74-.1Zm-.9-.15c.16-.12.34-.32.15-.37-.28-.03-.87.28-.9.5-.02.17.38.13.75-.13Zm-1.56 0c-.03.15.35.1.73-.15.2-.11.42-.3.25-.35-.29-.03-.95.3-.98.5Zm-.73-.11c-.02.13.35.04.73-.16l.05-.03c.02-.02.45-.27.28-.31-.27-.03-1.02.33-1.06.5Zm-.61-.09c-.03.1.31 0 .7-.19l.11-.05c.1-.06.42-.24.3-.27-.25-.02-1.09.36-1.12.5Zm-.52-.08c-.01.07.3-.02.69-.2l.17-.08c.15-.08.38-.2.31-.23-.23-.02-1.16.38-1.17.51Zm-.4-.05c.07.03.53-.17.66-.23.25-.1.55-.24.57-.3H45c-.2 0-1.24.45-1.22.53Zm-.26-.05c.02 0 .07 0 .63-.23.55-.23.6-.27.61-.28-.13 0-1.11.39-1.24.5v.01Zm15.07 1.6c.06-.01-.06-.15-.27-.33a2.75 2.75 0 0 0-.69-.43c-.02.09.84.77.96.76Zm-.53-.1c.07 0-.02-.14-.2-.31-.2-.18-.51-.4-.65-.43l-.03.01c-.05.1.73.74.88.73Zm-.76-.41a1.82 1.82 0 0 0-.6-.42h-.04c-.1.1.6.73.79.72.09 0 .03-.13-.14-.3Zm-1.23-.51c-.08.1.44.69.69.7.1 0 .07-.13-.07-.3-.14-.16-.4-.37-.57-.4h-.05Zm-.07.28a1.1 1.1 0 0 0-.5-.4l-.08.01c-.12.1.26.62.56.67.14.02.15-.1.03-.28Zm-3.77-.48c.13.2.5.19.56-.08a.3.3 0 0 0-.24-.36c-.28-.03-.45.26-.32.44Zm-.93-.18c.06.2.47.2.6-.06.06-.11.05-.3-.14-.34-.27-.03-.51.22-.46.4Zm-.25-.21c.08-.1.14-.28-.05-.32-.26-.03-.58.2-.57.37 0 .2.4.2.62-.05Zm-.82-.14c.12-.1.23-.27.05-.3-.24-.04-.66.2-.68.37-.02.17.36.16.63-.07Zm-.62-.42c-.25-.04-.76.2-.8.37-.02.15.34.12.66-.09.1-.06.32-.24.14-.29Zm-.85.15.08-.04c.05-.03.3-.19.15-.23-.26-.03-.86.23-.9.38-.03.12.3.09.67-.1Zm-.66-.11.21-.1c.21-.13.14-.15.11-.16-.25-.02-.95.24-.99.38-.02.1.28.06.67-.12Zm9.1 1.04a4.2 4.2 0 0 0-1.04-.6s.93.61 1.04.6Zm-.4-.08c.02-.03-.14-.15-.3-.25a3.35 3.35 0 0 0-.64-.34v.01c.04.07.85.61.94.59Zm-.69-.32c-.2-.15-.49-.3-.6-.33h-.01c-.03.06.73.58.84.58.05 0-.02-.1-.23-.25Zm-1.01-.39c-.02.03.16.2.38.36.14.1.3.2.36.19.05-.02-.02-.12-.17-.24-.18-.14-.44-.3-.55-.32h-.02Zm-.44-.09c-.07.06.4.53.6.54.08 0 .05-.1-.08-.22a1.43 1.43 0 0 0-.49-.31h-.03Zm-.48-.07c-.09.07.25.5.47.5.1 0 .1-.09 0-.2a.96.96 0 0 0-.42-.3h-.05Zm-.22.37c.13.05.19-.04.12-.18-.06-.1-.2-.25-.34-.28h-.06c-.13.06.05.4.28.47Zm-1.82-.74c-.18-.03-.42.16-.38.3.05.14.34.12.46-.07.05-.08.06-.2-.08-.23Zm-.54.13c.06-.05.17-.2.03-.22-.19-.03-.5.14-.51.27-.01.13.29.12.48-.05Zm-1.1-.04c-.03.1.26.09.51-.07 0 0 .28-.16.13-.2-.19-.02-.61.14-.64.27Zm-.59-.1c-.03.1.24.07.55-.07.03 0 .1-.04.15-.07.15-.1.1-.1.07-.11-.2-.02-.72.14-.77.25Zm-.54-.08c-.03.07.21.05.58-.08l.28-.11c.07-.04.04-.05.03-.06-.2-.02-.84.14-.9.25Zm.11-.16c.26-.07.4-.12.4-.15h-.01c-.2-.03-.96.14-1 .23-.02.05.2.04.6-.08Zm5.75.49a7.66 7.66 0 0 0-.68-.25s1.05.45 1.1.45a2.92 2.92 0 0 0-.42-.2Zm.17.16a6.07 6.07 0 0 0-1-.44s.96.45 1 .44Zm-.29-.06Zm-.31-.05a1.01 1.01 0 0 0-.27-.17 2.56 2.56 0 0 0-.5-.22H54s.73.42.78.39Zm-1-.43c.03.05.57.39.63.37.03-.01-.04-.08-.18-.16-.17-.1-.38-.2-.45-.21Zm-.25-.04c0 .05.4.36.5.34.03 0 0-.07-.12-.15a1.42 1.42 0 0 0-.38-.2Zm.07.27c.06 0 .06-.05-.02-.14a.78.78 0 0 0-.29-.18h-.02c-.03.05.18.3.33.32Zm-.74-.27c0-.05-.03-.13-.1-.14h-.01c-.1-.01-.22.12-.13.2.07.08.22.06.23-.06Zm-.38-.06c.02-.03.08-.11 0-.13-.1-.02-.3.08-.3.16 0 .09.2.08.3-.03Zm-.37-.07.04-.02c.09-.05.1-.08.07-.09-.11-.01-.42.07-.45.15-.02.06.15.07.34-.04Zm1.04-.03-.12-.07-.07-.02a3.97 3.97 0 0 1 .36.13v-.01a.94.94 0 0 0-.2-.09l-.06-.01.09.02a5.7 5.7 0 0 1-.02-.01l.06.01.31.1.12.03a2.88 2.88 0 0 0-.34-.1l-.07-.03.05.02.4.1a2.49 2.49 0 0 0-.01-.01l.22.07-.1-.04.2.06a7.74 7.74 0 0 0-1.16-.29l.15.06c.18.09.18.09.2.08Zm.23-.01-.09-.02.04.01-.14-.03-.07-.02.17.04h-.02l-.18-.05-.07-.01.3.06.06.02Z"/>
</svg>
