<svg viewBox="0 0 100 100" xmlns="http://www.w3.org/2000/svg">
  <circle fill="none" stroke="#2f3238" stroke-width="3.5" cx="50" cy="50" r="42"/>
  <path fill="#a73232" d="M58.816 17.847 38.493 43.5h11.009l-4.683 20.771 19.178-28.243h-9.016l3.835-18.181Z"/>
  <path fill="#a73232" d="M59.463 47.286c.2.198.45.448.649.646 2.69 2.79 4.084 6.327 4.084 10.71 0 4.384-1.394 8.02-4.084 10.709-2.69 2.789-6.078 4.184-10.261 4.184-4.185 0-7.621-1.395-10.262-4.184-2.639-2.789-4.084-6.325-4.084-10.709 0-4.383 1.395-8.02 4.084-10.71.2-.198.449-.448.748-.646l-8.019-4.733c-4.185 4.384-6.327 9.862-6.327 16.039 0 6.525 2.242 12.104 6.875 16.686 4.582 4.484 10.26 6.875 17.134 6.875 6.874 0 12.502-2.241 17.134-6.875 4.584-4.483 6.875-10.061 6.875-16.686 0-6.226-2.142-11.556-6.227-15.94l-8.319 4.634Z"/>
</svg>
