<svg version="1.1" xmlns="http://www.w3.org/2000/svg" x="0px" y="0px" viewBox="0 519.2 595.3 139.3" enable-background="new 0 519.2 595.3 139.3" xml:space="preserve">
<polygon fill="#fff" points="378.6,522.7 337.8,574.2 359.9,574.2 350.5,615.9 389,559.2 370.9,559.2 "/>
    <path fill="none" d="M411.1,586.5"/>
    <path fill="#fff" d="M379.9,581.8c0.4,0.4,0.9,0.9,1.3,1.3c5.4,5.6,8.2,12.7,8.2,21.5s-2.8,16.1-8.2,21.5
	c-5.4,5.6-12.2,8.4-20.6,8.4c-8.4,0-15.3-2.8-20.6-8.4s-8.2-12.7-8.2-21.5s2.8-16.1,8.2-21.5c0.4-0.4,0.9-0.9,1.5-1.3l-16.1-9.5
	c-8.4,8.8-12.7,19.8-12.7,32.2c0,13.1,4.5,24.3,13.8,33.5c9.2,9,20.6,13.8,34.4,13.8s25.1-4.5,34.4-13.8c9.2-9,13.8-20.2,13.8-33.5
	c0-12.5-4.3-23.2-12.5-32L379.9,581.8z"/>
    <path fill="#dd4e49" d="M39.8,570.3v79.6H15.6V525.6h18.7l64.8,81.5v-81.4h24.2v124.1h-19.6L39.8,570.3z"/>
    <path fill="#dd4e49" d="M146.9,545.4v-23.3h23.5v23.3H146.9z M146.9,649.9v-91.7h23.5v91.7H146.9z"/>
    <path fill="#fff" d="M298.2,525.6v124.3h-24v-53h-56.4v53h-24.1V525.6h24.1v50.2h56.4v-50.2H298.2z"/>
    <path fill="#fff" d="M459.3,651.1c-7.7,0-15.2-1.2-22.6-3.7s-13.7-6-18.9-10.5l8.8-14.7c5.6,4,11.1,7,16.4,9
	c5.3,2,10.6,3.1,15.8,3.1c4.7,0,8.3-0.9,11-2.6c2.7-1.8,4-4.3,4-7.5c0-3.3-1.6-5.7-4.7-7.2c-3.2-1.5-8.3-3.3-15.4-5.3
	c-5.9-1.6-11-3.2-15.2-4.7c-4.2-1.5-7.6-3.2-10.2-5.2c-2.6-1.9-4.4-4.1-5.6-6.6c-1.2-2.5-1.8-5.5-1.8-9c0-4.7,0.9-8.9,2.7-12.6
	c1.8-3.7,4.3-6.9,7.6-9.5c3.3-2.6,7.1-4.6,11.5-6c4.4-1.4,9.1-2.1,14.3-2.1c6.9,0,13.3,1,19.3,3c6,2,11.5,5.2,16.5,9.6l-9.5,14.2
	c-4.7-3.5-9.2-6.1-13.6-7.7c-4.4-1.6-8.7-2.5-13-2.5c-4,0-7.3,0.8-10,2.5c-2.7,1.6-4,4.3-4,7.9c0,1.6,0.3,3,1,4c0.6,1,1.7,2,3.1,2.8
	c1.4,0.8,3.2,1.6,5.5,2.4c2.3,0.8,5.1,1.5,8.5,2.4c6.3,1.6,11.7,3.3,16.2,4.9c4.5,1.6,8.2,3.5,11,5.6c2.9,2.1,5,4.5,6.3,7.3
	c1.3,2.7,2,6,2,9.9c0,9-3.3,16.1-10,21.3C479.8,648.5,470.8,651.1,459.3,651.1z"/>
    <path fill="#fff" d="M563.1,644.8c-3,1.4-6.6,2.9-10.9,4.3c-4.3,1.4-8.8,2.1-13.5,2.1c-3.1,0-6-0.4-8.7-1.3
	c-2.7-0.8-5.1-2.2-7.1-4c-2-1.8-3.7-4.2-4.9-7.1c-1.2-2.9-1.8-6.5-1.8-10.6v-53.8h-11.4V556h11.4v-30.4h22.1V556h18.2v18.4h-18.2
	v45.7c0,3.3,0.8,5.7,2.4,7.1c1.6,1.4,3.6,2.1,5.9,2.1c2.3,0,4.6-0.4,6.8-1.3c2.2-0.8,4-1.5,5.3-2.1L563.1,644.8z"/>
</svg>
