<svg xmlns="http://www.w3.org/2000/svg" viewBox="0 0 64 64" width="256" height="256"><linearGradient id="PEZbmSSolOsrLq3TwHVPqa" x1="19.532" x2="19.532" y1="31.51" y2="38.694" gradientUnits="userSpaceOnUse" spreadMethod="reflect"><stop offset="0" stop-color="#6dc7ff"/><stop offset="1" stop-color="#e6abff"/></linearGradient><path fill="url(#PEZbmSSolOsrLq3TwHVPqa)" d="M21.574 38.34L16.126 32.892 17.488 31.53 22.937 36.978z"/><linearGradient id="PEZbmSSolOsrLq3TwHVPqb" x1="29.066" x2="29.066" y1="40.843" y2="48.373" gradientUnits="userSpaceOnUse" spreadMethod="reflect"><stop offset="0" stop-color="#6dc7ff"/><stop offset="1" stop-color="#e6abff"/></linearGradient><path fill="url(#PEZbmSSolOsrLq3TwHVPqb)" d="M31.109 47.875L25.661 42.427 27.023 41.065 32.471 46.513z"/><linearGradient id="PEZbmSSolOsrLq3TwHVPqc" x1="41.324" x2="41.324" y1="17.51" y2="28.521" gradientUnits="userSpaceOnUse" spreadMethod="reflect"><stop offset="0" stop-color="#6dc7ff"/><stop offset="1" stop-color="#e6abff"/></linearGradient><path fill="url(#PEZbmSSolOsrLq3TwHVPqc)" d="M41.324 18.825A3.852 3.852 0 1 0 41.324 26.529A3.852 3.852 0 1 0 41.324 18.825Z"/><linearGradient id="PEZbmSSolOsrLq3TwHVPqd" x1="32" x2="32" y1="4.676" y2="59.39" gradientUnits="userSpaceOnUse" spreadMethod="reflect"><stop offset="0" stop-color="#1a6dff"/><stop offset="1" stop-color="#c822ff"/></linearGradient><path fill="url(#PEZbmSSolOsrLq3TwHVPqd)" d="M54.97,9.031c-6.056-6.059-15.802-1.957-20.482,2.724l-9.098,9.097l-5.326-1.776 c-1.755-0.581-3.659-0.134-4.968,1.174l-8.531,8.53c-0.371,0.371-0.575,0.864-0.575,1.389c0,0.524,0.205,1.018,0.575,1.388 l0.475,0.475c0.275,0.275,0.623,0.462,1.003,0.537l5.515,1.103c0.192,0.038,0.384,0.058,0.576,0.058c0.185,0,0.367-0.02,0.547-0.054 c0.133,0.48,0.376,0.925,0.738,1.287l4.741,4.74l-0.655,0.655c-1.141,1.141-1.141,2.997,0,4.138 c0.553,0.553,1.288,0.857,2.069,0.857c0.782,0,1.517-0.305,2.069-0.857l0.655-0.654l4.741,4.741 c0.375,0.374,0.829,0.613,1.306,0.742c-0.07,0.366-0.091,0.742-0.016,1.119l1.103,5.514c0.076,0.38,0.261,0.727,0.538,1.004 l0.475,0.475c0.383,0.383,0.885,0.574,1.388,0.574c0.502,0,1.005-0.191,1.388-0.574l8.53-8.53c1.309-1.309,1.758-3.212,1.173-4.969 l-1.775-5.325l9.097-9.097C56.925,24.834,61.027,15.088,54.97,9.031z M14.785,31.457c-0.218,0.22-0.531,0.31-0.834,0.253 l-5.496-1.093L7.98,30.194l8.531-8.53c0.769-0.77,1.891-1.03,2.921-0.69l4.378,1.459l-7.028,7.028L14.785,31.457z M16.834,33.548 c-0.175-0.175-0.272-0.408-0.272-0.655c0-0.248,0.097-0.48,0.271-0.655l0.655-0.655l5.396,5.396l-1.31,1.31L16.834,33.548z M22.229,43.081c-0.349,0.35-0.958,0.35-1.31,0c-0.361-0.361-0.361-0.948,0-1.31l10.216-10.215c0.175-0.176,0.407-0.271,0.654-0.271 c0.248,0,0.48,0.097,0.655,0.271c0.361,0.361,0.361,0.948,0,1.31L22.229,43.081L22.229,43.081z M25.712,42.427l1.31-1.311 l5.396,5.396l-0.221,0.221l-0.436,0.436c-0.361,0.359-0.947,0.359-1.308-0.001L25.712,42.427z M42.337,47.49l-8.479,8.53 l-0.464-0.456l-1.103-5.515c-0.061-0.303,0.034-0.615,0.252-0.834l0.629-0.629c0.002-0.001,0.004-0.003,0.005-0.004l0.681-0.682h0 l7.708-7.708l1.459,4.376C43.371,45.602,43.106,46.721,42.337,47.49z M36.557,42.375l-2.698-2.698l-1.414,1.414l2.698,2.698 l-1.31,1.31l-5.396-5.396l5.422-5.422c1.141-1.141,1.141-2.997,0-4.138c-1.106-1.105-3.034-1.105-4.139,0l-5.422,5.422l-5.396-5.396 l1.31-1.31l2.698,2.698l1.414-1.414l-2.698-2.698l14.276-14.275c4.271-4.271,12.783-7.592,17.654-2.724 c4.871,4.871,1.548,13.383-2.724,17.654L36.557,42.375z"/><linearGradient id="PEZbmSSolOsrLq3TwHVPqe" x1="41.324" x2="41.324" y1="4.676" y2="59.39" gradientUnits="userSpaceOnUse" spreadMethod="reflect"><stop offset="0" stop-color="#1a6dff"/><stop offset="1" stop-color="#c822ff"/></linearGradient><path fill="url(#PEZbmSSolOsrLq3TwHVPqe)" d="M37.893,19.246c-1.892,1.892-1.892,4.971,0,6.862c0.917,0.917,2.135,1.422,3.431,1.422 s2.515-0.505,3.431-1.422c1.892-1.892,1.892-4.971,0-6.862C42.863,17.354,39.784,17.355,37.893,19.246z M43.341,24.694 c-1.078,1.078-2.956,1.078-4.034,0c-1.112-1.112-1.112-2.922,0-4.034c0.556-0.556,1.287-0.834,2.017-0.834s1.461,0.278,2.017,0.834 C44.453,21.772,44.453,23.582,43.341,24.694z"/></svg>