<svg xmlns="http://www.w3.org/2000/svg" viewBox="0 0 64 64" width="256" height="256"><linearGradient id="~86w8~G1gqySxnCcUUC4Xa" x1="32" x2="32" y1="606.36" y2="603.732" gradientTransform="matrix(1 0 0 -1 0 652.11)" gradientUnits="userSpaceOnUse" spreadMethod="reflect"><stop offset="0" stop-color="#6dc7ff"/><stop offset="1" stop-color="#e6abff"/></linearGradient><path fill="url(#~86w8~G1gqySxnCcUUC4Xa)" d="M40,48H24l1-2h14L40,48z"/><linearGradient id="~86w8~G1gqySxnCcUUC4Xb" x1="42.199" x2="42.199" y1="13.766" y2="40.307" gradientUnits="userSpaceOnUse" spreadMethod="reflect"><stop offset="0" stop-color="#6dc7ff"/><stop offset="1" stop-color="#e6abff"/></linearGradient><path fill="url(#~86w8~G1gqySxnCcUUC4Xb)" d="M40.75,25.911c1.25,1.796,1.91,3.901,1.91,6.089c0,2.739-1.037,5.342-2.921,7.33 l1.452,1.376c2.237-2.361,3.469-5.453,3.469-8.706c0-2.598-0.785-5.098-2.269-7.231L40.75,25.911z"/><linearGradient id="~86w8~G1gqySxnCcUUC4Xc" x1="37.479" x2="37.479" y1="13.766" y2="40.307" gradientUnits="userSpaceOnUse" spreadMethod="reflect"><stop offset="0" stop-color="#6dc7ff"/><stop offset="1" stop-color="#e6abff"/></linearGradient><path fill="url(#~86w8~G1gqySxnCcUUC4Xc)" d="M32,15.309c-1.961,0-3.891,0.342-5.733,1.016l0.687,1.878 c1.622-0.593,3.32-0.894,5.046-0.894c8.101,0,14.691,6.59,14.691,14.691c0,1.822-0.334,3.607-0.992,5.307l1.865,0.723 c0.748-1.931,1.127-3.959,1.127-6.029C48.691,22.796,41.204,15.309,32,15.309z"/><linearGradient id="~86w8~G1gqySxnCcUUC4Xd" x1="20.086" x2="20.086" y1="13.766" y2="40.307" gradientUnits="userSpaceOnUse" spreadMethod="reflect"><stop offset="0" stop-color="#6dc7ff"/><stop offset="1" stop-color="#e6abff"/></linearGradient><path fill="url(#~86w8~G1gqySxnCcUUC4Xd)" d="M19.124,21.379c-0.842,1.021-1.562,2.142-2.14,3.333l1.799,0.873 c0.509-1.048,1.143-2.035,1.884-2.934c0.742-0.899,1.59-1.709,2.521-2.407l-1.199-1.601C20.93,19.438,19.967,20.357,19.124,21.379 z"/><linearGradient id="~86w8~G1gqySxnCcUUC4Xe" x1="36.915" x2="36.915" y1="13.766" y2="40.307" gradientUnits="userSpaceOnUse" spreadMethod="reflect"><stop offset="0" stop-color="#6dc7ff"/><stop offset="1" stop-color="#e6abff"/></linearGradient><path fill="url(#~86w8~G1gqySxnCcUUC4Xe)" d="M37.25,20.48c-0.885-0.403-1.815-0.703-2.767-0.894l-0.393,1.961 c0.801,0.161,1.585,0.414,2.33,0.752c0.744,0.339,1.449,0.765,2.097,1.265l1.223-1.583C38.971,21.388,38.133,20.883,37.25,20.48z"/><linearGradient id="~86w8~G1gqySxnCcUUC4Xf" x1="31.119" x2="31.119" y1="13.766" y2="40.307" gradientUnits="userSpaceOnUse" spreadMethod="reflect"><stop offset="0" stop-color="#6dc7ff"/><stop offset="1" stop-color="#e6abff"/></linearGradient><path fill="url(#~86w8~G1gqySxnCcUUC4Xf)" d="M29.916,19.513l0.329,1.973c0.578-0.097,1.169-0.146,1.755-0.146l0.273,0.003l0.049-1.999 L32,19.34C31.303,19.34,30.602,19.398,29.916,19.513z"/><g><linearGradient id="~86w8~G1gqySxnCcUUC4Xg" x1="31.999" x2="31.999" y1="3.511" y2="59.872" gradientUnits="userSpaceOnUse" spreadMethod="reflect"><stop offset="0" stop-color="#1a6dff"/><stop offset="1" stop-color="#c822ff"/></linearGradient><path fill="url(#~86w8~G1gqySxnCcUUC4Xg)" d="M40.445,45.656C39.938,44.637,38.91,44,37.766,44H26.234c-1.145,0-2.172,0.637-2.68,1.656 l-0.73,1.453c-0.309,0.625-0.277,1.352,0.09,1.945C23.281,49.645,23.918,50,24.613,50h14.773c0.695,0,1.332-0.355,1.695-0.945 c0.367-0.594,0.402-1.32,0.09-1.945L40.445,45.656z M24.617,48.004l0.727-1.453C25.512,46.211,25.855,46,26.234,46h11.531 c0.383,0,0.723,0.211,0.891,0.551L39.391,48L24.617,48.004z"/><linearGradient id="~86w8~G1gqySxnCcUUC4Xh" x1="32" x2="32" y1="3.511" y2="59.872" gradientUnits="userSpaceOnUse" spreadMethod="reflect"><stop offset="0" stop-color="#1a6dff"/><stop offset="1" stop-color="#c822ff"/></linearGradient><path fill="url(#~86w8~G1gqySxnCcUUC4Xh)" d="M32,6C17.664,6,6,17.664,6,32s11.664,26,26,26s26-11.664,26-26S46.336,6,32,6z M55.348,30.821H53.01c-0.114-2.018-0.502-3.954-1.146-5.78l2.159-0.895C54.777,26.251,55.229,28.488,55.348,30.821z M53.129,21.987l-2.164,0.895c-0.863-1.785-1.968-3.433-3.278-4.894l1.653-1.653C50.864,18.015,52.138,19.914,53.129,21.987z M42.035,10.893c2.068,0.991,3.967,2.265,5.652,3.789l-1.653,1.653c-1.466-1.31-3.109-2.415-4.894-3.278L42.035,10.893z M33.201,8.674c2.333,0.114,4.57,0.571,6.675,1.324l-0.895,2.159c-1.826-0.644-3.762-1.032-5.78-1.146V8.674z M30.863,8.674v2.338 c-2.018,0.11-3.954,0.502-5.78,1.146l-0.895-2.159C26.293,9.245,28.53,8.788,30.863,8.674z M22.029,10.893l0.895,2.164 c-1.785,0.863-3.433,1.968-4.894,3.278l-1.653-1.653C18.057,13.157,19.956,11.884,22.029,10.893z M14.724,16.335l1.653,1.653 c-1.31,1.466-2.415,3.109-3.278,4.894l-2.164-0.895C11.925,19.919,13.199,18.02,14.724,16.335z M10.04,24.147l2.159,0.895 c-0.644,1.826-1.032,3.762-1.146,5.78H8.716C8.83,28.488,9.286,26.251,10.04,24.147z M8.711,33.159h2.342 c0.105,1.995,0.493,3.935,1.137,5.785l-2.164,0.899C9.263,37.711,8.825,35.465,8.711,33.159z M10.916,42.002l2.169-0.899 c0.849,1.762,1.949,3.406,3.287,4.894l-1.676,1.676C13.144,45.961,11.884,44.048,10.916,42.002z M32,56 c-6.192,0-11.843-2.357-16.105-6.221l3.741-3.741l-0.804-0.799c-1.726-1.721-3.063-3.721-3.995-5.89l-0.16-0.383 c-0.877-2.187-1.347-4.543-1.347-6.976c0-10.309,8.391-18.7,18.7-18.7c10.309,0,18.7,8.391,18.7,18.7 c0,2.429-0.47,4.785-1.347,6.972l-0.164,0.397c-0.927,2.164-2.265,4.159-3.99,5.876l-0.804,0.804l3.711,3.711 C43.873,53.631,38.208,56,32,56z M49.367,47.673l-1.676-1.676c1.338-1.484,2.438-3.132,3.287-4.894l2.173,0.899 C52.179,44.048,50.919,45.961,49.367,47.673z M51.873,38.943c0.644-1.849,1.027-3.789,1.137-5.785h2.342 c-0.114,2.306-0.552,4.552-1.315,6.684L51.873,38.943z"/><linearGradient id="~86w8~G1gqySxnCcUUC4Xi" x1="34.426" x2="34.426" y1="3.511" y2="59.872" gradientUnits="userSpaceOnUse" spreadMethod="reflect"><stop offset="0" stop-color="#1a6dff"/><stop offset="1" stop-color="#c822ff"/></linearGradient><path fill="url(#~86w8~G1gqySxnCcUUC4Xi)" d="M36.335,29.509l-0.019,0.011C35.451,28.022,33.851,27,32,27c-2.757,0-5,2.243-5,5 c0,2.059,1.252,3.829,3.034,4.594l0,0.001l9.037,4.542l0.111,0.047c0.224,0.081,0.454,0.12,0.681,0.12 c0.561,0,1.105-0.238,1.494-0.677c0.545-0.617,0.658-1.491,0.252-2.288L36.335,29.509z M32,35c-1.654,0-3-1.346-3-3s1.346-3,3-3 s3,1.346,3,3S33.654,35,32,35z M34.216,36.459c1.081-0.54,1.946-1.445,2.407-2.569l3.227,5.4L34.216,36.459z"/></g><linearGradient id="~86w8~G1gqySxnCcUUC4Xj" x1="32" x2="32" y1="29.819" y2="34.006" gradientUnits="userSpaceOnUse" spreadMethod="reflect"><stop offset="0" stop-color="#6dc7ff"/><stop offset="1" stop-color="#e6abff"/></linearGradient><path fill="url(#~86w8~G1gqySxnCcUUC4Xj)" d="M32 30A2 2 0 1 0 32 34A2 2 0 1 0 32 30Z"/></svg>