<svg xmlns="http://www.w3.org/2000/svg" viewBox="0 0 64 64" width="256" height="256"><linearGradient id="igHaUL_Y1Ju7CLuVWmGL6a" x1="37" x2="37" y1="37.063" y2="41.251" gradientUnits="userSpaceOnUse" spreadMethod="reflect"><stop offset="0" stop-color="#6dc7ff"/><stop offset="1" stop-color="#e6abff"/></linearGradient><path fill="url(#igHaUL_Y1Ju7CLuVWmGL6a)" d="M37 37A2 2 0 1 0 37 41A2 2 0 1 0 37 37Z"/><linearGradient id="igHaUL_Y1Ju7CLuVWmGL6b" x1="25" x2="25" y1="37.063" y2="41.251" gradientUnits="userSpaceOnUse" spreadMethod="reflect"><stop offset="0" stop-color="#6dc7ff"/><stop offset="1" stop-color="#e6abff"/></linearGradient><path fill="url(#igHaUL_Y1Ju7CLuVWmGL6b)" d="M25 37A2 2 0 1 0 25 41A2 2 0 1 0 25 37Z"/><linearGradient id="igHaUL_Y1Ju7CLuVWmGL6c" x1="31" x2="31" y1="42.625" y2="48.375" gradientUnits="userSpaceOnUse" spreadMethod="reflect"><stop offset="0" stop-color="#6dc7ff"/><stop offset="1" stop-color="#e6abff"/></linearGradient><path fill="url(#igHaUL_Y1Ju7CLuVWmGL6c)" d="M34,43h-6c-0.552,0-1,0.448-1,1h0.001H27c0,2,1.791,4,4,4s4-1.791,4-4v0 C35,43.448,34.552,43,34,43z"/><linearGradient id="igHaUL_Y1Ju7CLuVWmGL6d" x1="32" x2="32" y1="5" y2="58.757" gradientUnits="userSpaceOnUse" spreadMethod="reflect"><stop offset="0" stop-color="#1a6dff"/><stop offset="1" stop-color="#c822ff"/></linearGradient><path fill="url(#igHaUL_Y1Ju7CLuVWmGL6d)" d="M54,33c0-1.654-1.346-3-3-3h-1c0-8.378-5.458-15.494-13-18.014V11c0-1.654-1.346-3-3-3 c-0.395,0-0.77,0.081-1.116,0.22C32.539,6.945,31.383,6,30,6c-1.654,0-3,1.346-3,3v2.433C22.401,12.421,18.298,15.09,15.517,19H8v3 c0,2.815,1.675,5.242,4.078,6.352C12.031,28.898,12,29.448,12,30v1.101C9.721,31.566,8,33.585,8,36c0,2.757,2.243,5,5,5h1.266 c1.177,6.58,6.164,11.953,12.788,13.527C27.314,56.482,28.974,58,31,58h6c1.859,0,3.411-1.28,3.858-3H44c3.859,0,7-3.141,7-7v-6 c1.654,0,3-1.346,3-3c1.103,0,2-0.897,2-2v-2C56,33.897,55.103,33,54,33z M34,10c0.552,0,1,0.448,1,1v0.432 c-0.656-0.141-1.322-0.253-2-0.325V11C33,10.448,33.448,10,34,10z M29,9c0-0.552,0.448-1,1-1s1,0.448,1,1v2 c-0.673,0-1.339,0.043-2,0.113V9z M31,13c9.374,0,17,7.626,17,17h-2v2v3h-1c-0.552,0-1-0.448-1-1v-4c0-1.654-1.346-3-3-3h-7v-1 c0-3.859-3.141-7-7-7h-8.957C21.256,15.214,25.969,13,31,13z M10,22v-1h17c2.757,0,5,2.243,5,5v1H21h-6C12.243,27,10,24.757,10,22z M13,39c-1.654,0-3-1.346-3-3s1.346-3,3-3h1v5c0,0.335,0.01,0.669,0.029,1H13z M14,31v-1c0-0.359,0.037-0.714,0.059-1.071 C14.368,28.971,14.68,29,15,29h3.184C18.072,29.314,18,29.648,18,30v4c0,0.552-0.448,1-1,1h-1v-4H14z M16,38v-1h1 c1.654,0,3-1.346,3-3v-4c0-0.552,0.448-1,1-1h13h7c0.552,0,1,0.448,1,1v4c0,1.654,1.346,3,3,3h1v1c0,5.098-2.626,9.864-6.893,12.615 C38.494,50.231,37.775,50,37,50h-6c-1.684,0-3.122,1.049-3.71,2.525C20.698,50.85,16,44.89,16,38z M37,56h-6c-1.103,0-2-0.897-2-2 s0.897-2,2-2h6c1.103,0,2,0.897,2,2S38.103,56,37,56z M49,48c0,2.757-2.243,5-5,5h-3.142c-0.083-0.319-0.206-0.618-0.36-0.901 c3.533-2.386,6.017-6.016,7.012-10.099H49V48z M52,39c0,0.552-0.448,1-1,1h-3v-2v-6h3c0.552,0,1,0.448,1,1V39z"/><linearGradient id="igHaUL_Y1Ju7CLuVWmGL6e" x1="37" x2="37" y1="5" y2="58.757" gradientUnits="userSpaceOnUse" spreadMethod="reflect"><stop offset="0" stop-color="#1a6dff"/><stop offset="1" stop-color="#c822ff"/></linearGradient><path fill="url(#igHaUL_Y1Ju7CLuVWmGL6e)" d="M34 33H40V35H34z"/><linearGradient id="igHaUL_Y1Ju7CLuVWmGL6f" x1="25" x2="25" y1="5" y2="58.757" gradientUnits="userSpaceOnUse" spreadMethod="reflect"><stop offset="0" stop-color="#1a6dff"/><stop offset="1" stop-color="#c822ff"/></linearGradient><path fill="url(#igHaUL_Y1Ju7CLuVWmGL6f)" d="M22 33H28V35H22z"/></svg>