<svg xmlns="http://www.w3.org/2000/svg" viewBox="0 0 2241 1343" fill="#aaa">
    <path opacity="0.35" d="M1891.7 1343c-8.5-14-17-27.7-25.4-41.5-201.1-323.3-443.1-490-683.1-471.2-227.5 18.1-446.5 207-635.3 512.5h1343.8v.2z"/>
    <path opacity="0.35" d="M2394 1076.9c-171.2-380.7-372.4-786.5-602.4-689.5-162.3 68.4-269.1 445.6-411.9 629.3-185.5 238.4-330.9-66.1-496.9-270.9-224-276-500.7-200.9-700.4 190C120.6 1056.9 61.5 1209.4 0 1339.1h2394v-262.2z"/>
    <path opacity="0.35" d="M3432.9 905.2c-21.6-7.1-43-8.2-62.3-4.2-73 14.5-142.2 88.2-209.5 164.6s-134.9 156.9-207.2 187.3c-241.2 101.2-440.7-353-663.5-499.4-201.9-132.6-415.8-18-611.8 165.4-199.5 186.5-405.5 448.4-612.9 336.9-146-78.5-268.2-332.6-403.1-499.6-239.1-296.4-493-289.8-740.5-146.4V1402h3510.8V905.2z"/>
</svg>
