<svg xmlns="http://www.w3.org/2000/svg" viewBox="0 0 64 64">
    <path fill="#20552b" d="M41.36 37.44c1.47 1.23 2.68 2.85 3.69 2.85 1.12 0 1.52-1.27 2.25-1.38.55-.07 3.18 1.66 4.2 1.73 1 .06 1.54-.53 1.4-1.33.5.3 1.36.77 1.78.26.53-.66-1.55-2.13-1.55-2.13H41.36Z"/>
    <path fill="#5c9e41" d="M20.05 47.91c.01.03 1.06 1.92.19 2.17-.52.16-1.48-.29-1.56-.28-.13.02-.53.4-.67.4-.98-.12-1.34-2.23-1.57-2.42-.22.08-.34.7-1.06.81-.87-.55-.6-2.34-.58-3.25-.46-.62-.65-.57-.76-1.46.18-.1 1.7-1.27 2.15-1.62.04.15 3.64 5.5 3.86 5.65Z"/>
    <path fill="#2f6b39" d="M49.7 40.94v.04l-.02.12c-.02.16-.01.33-.05.5l-.03.08c-.05.22-.1.33-.18.49l-.31.61c.22-.07.33-.1.55-.2.69-.5 1.37-.17 1.37-.17l-10.39 6.04-22.16-5.14s-.41.37-.17.68c.3.38 1.4 1.1 1.4 1.9 0 .28-.74.49-.59.64.53.52.72.65.93 1.38-.22-.14-.49-.5-.69-.6-1.45-.81-2.66-1.68-3-3.43a7.18 7.18 0 0 1-.12-1.01c0-.17 0-.46-.05-.61l2.34-4.82s0 1.2.54 1.6c.22.17.7-1 .68-1.6h1.53c1.89-.05 2.34 2.34 3.03 2.23.48-.07.22-2.02 1.07-2.23h4.93c-.12 1.07-.04 1.56.3 1.47a4 4 0 0 0 1.91-1.47h3.62c.33.92.4 2 1.45 2 1.72-.03 3.25-1.41 4-2h2.6-.88l.01 1.04c.2.68-1.07 1.65-1.18 1.87-.26.5.11.63.16.65.71.46 2.65-.93 3.1-.49.1.48-1.24 1.11-1.32 1.65.08.2.4.06 1.27.36.24.09.84.48 1.39-.03.2-.1.46-.77.57-1 .46-.87 2.18-2.63 2.4-.55Zm-7.35.66c-.08.03-.72.25-.95.52-.25.29.21.3.24.3.7 0 1.7-.9.71-.82Z"/>
    <path fill="#5c9e41" d="M49.66 42.57c.04-.03 2.07-1.95 2.58-1.58.13.1.24.83.32.92.15.2.8-.25.86-.3.37-.28.68-.63 1.03-.93.56-.5.91-.6 1.03.15.25 1.63-2.15 3.56-2.82 3.97-1.07.63-2.33.85-3.46 1.36-2.25.99-4.04 2.68-7.27 2.86-1.93.1-3.98-.84-5.63-.46-.42.1-2.69 1.12-3.27 1.28-2.72.76-4.85-.84-6.52-1.6-1.7-.76-1.8-.5-3.48-1.34-2.2-1.1-3.73-2.73-4.74-3.38-.74-.59-1.09-.84-1.72-1.57l1.03-.81c.83.95 1.6.26 2.12.07 1.37-.54 5.8-.83 6.86.83.69 1.08-.98 1.93-1.2 2.35.12.25.52.14.57.13.44-.13.38-.23 1.34-1.2.25.3.34.55.46.92 2.93-3.63 5.08-3.44 5.88-3.42.26.01 3.67.12 2.71 1.93-.14.27-.29.53-.46.78-.34.48-.73.91-1.06 1.4 2.3-1.13 4.06-2.22 7.3-2.09.09 0 .9.04.96.52.1.9-1.65 2.78-1.95 3.2a28.17 28.17 0 0 0 4.1-2.1c.65-.46 1.45-1.95 2.56-2.55.76-.42 1.06.1.96.57-.02.1-.14.64-.52 1.32.37-.16 1.43-.78 1.43-1.23Z"/>
    <path fill="#20552b" d="M50.32 23.64H24.8c-.2-1.92 8.84-4.32 12.86-4.42 8.94-.24 12.55 3.88 12.66 4.42Z"/>
    <path fill="#316b39" d="m26.9 16.04.22.59c.6.85 2.02 1.28 3.6.61.18-.07 2.16-.91 2.49-.08.16.42.05.9.03.97-.13.5-1.33 1.44-1.45 2.03.37.53 1.55.54 1.69.54.92 0 3.58-1.01 3.73-.48.08.27-.95 1.84-.19 2.1 1.56.56 3.25-1.81 4.8-1.34.34.1 1.58.93 3.08.35.31-.12 1.49-1.09 1.84-.81.62.47-.26 1.73 1.51 1.64.4-.02.81-.13 1.22-.1.36.03 1.74.88 2.4-.24.73-1.18.44-1.68 1.83-1.8.35-.03-.46-1.37-.42-1.26l-16.35-4.92-10.03 2.2Z"/>
    <path fill="#316b39" d="m53.82 19.55.98.2c.07-.53.07-.7.28-1.2-.06-.28-.13-.45-.25-.71.02 0 2.04.32 2.03.3.12-.32.23-.37.52-.52l.4.05.31-.85c.08.28 1.94 3.46 2 3.45-.08.09-.16.16-.19.28l3.37.98c-.31.54-2 1.13-2.65 1.46h-.04c-.66.35-1.18.63-1.22.63l-4.55.03c.04-1.86-.27-3.84-.99-4.1Z"/>
    <path fill="#5c9e41" d="M56.63 23h-1.82c0-.11-2.13-3.8-2.13-3.8-.01.02.49 1.48-1.93 1.69-2.52.22-2.6-1.93-3.54-1.87-.71.06-3.19 2.1-5.13.76a7.79 7.79 0 0 1-1.7-1.72c-.65-1.15 1.88-1.81.93-2.49-1.33-.95-5.94 2.75-8.66 1.75-1.12-.4 1.3-2.34.87-2.27-1.07.18-4.24 2.41-7.12 1.03-1.47-.71 6.6-2.22 7.2-2.33 1.7-.32 3.52-.46 6.9.2 1.1.2 2.48 1.48 4.8 1.82.82.12 2.11-.1 5.27 1.12.38.15 2.57 1 4.23 2.86.45.46.68.73 1.08 1.23-.03-.1-.68-1.43-.68-1.71-.01-.28.46-.34.51-.35a3.41 3.41 0 0 0-.88-1.08c-.24-.48-.48-.84-.15-1.33-.04-.1-.76-2.05.38-1.29.38.25.63.65.68.71 1.25 1.94.94 2.13 1.12 2.21.69.98-.54 4.2-.67 4.55 1.16-1.53 3.63-2.07 3.72-2.14 1.38-.2 3.49.1 3.36.98-.7.38-.73.26-1.52.3-.24.41-.17.65-.62.5-1.43-.48-1.39-.56-1.51-.6-.5 1.16-2.07-.44-2.98 1.27Z"/>
    <path fill="#5c9e41" d="M58.1 16.82c.74-1.63 1.72-1.61 1.9-.4.06.03.78.28.73.66-.09.69-.2.64-.75 1.77.83.43.78.8.11 1.41-.66.15-.65.18-1.33.3-.62.1-.63.05-1.2.33l.06-.1a5.2 5.2 0 0 0 .47-3.97Z"/>
    <path fill="#316b39" d="M19.98 21.92c1.47-1.61 4.03-3.87 6.28-3.92l2.28.02c-.3.36-.76 1.31-1.21 1.4-.96.21-1.26.03-2.02.85.18.37-.5.93-.93 1.1a3.2 3.2 0 0 1-1.81 0c-1.29.36-2.07.81-2.41 2.09h-.43c.05-.29.13-1.3.25-1.54Z"/>
    <path fill="#5c9e41" d="M19.98 21.44c1.47-1.6 3.97-3.49 6.22-3.53.68-.01 1.24.1 1.92.1-.3.36-.86.86-1.31.95-.96.21-1.28-.03-2.03.79.17.36.17.65-.26.81-.49.18-1.48.18-1.95.01a3.18 3.18 0 0 0-2.41 2.4c-.14.01-.3 0-.43.02.05-.3.13-1.3.25-1.55Z"/>
    <path fill="#2b413d" d="m18.62 40.69-7.2 5.5-1.54-.4v-3.64l-.25.25-4.36-2.85.02-.49-.42.21-2.25-1.48v-7.51l.15-.26-.15-.21v-3.5l.16-.16-.15-.17v-.66L.38 19.9l5-1 .56.6-.04-.66a20.2 20.2 0 0 1 11.41.25l.01.35.4-.24c.97.13 1.94.37 2.79.7l-.6 2.88h1.63l.39.54.3-.15h3.73l.53-.4h26l.34.55.55-.54h9.18l.43.48v5.46l-1.43.8L63 31.23v2.81l-.29.18.29.22v4.19h-6.47l-.3-.24-.22.23h-1.2l-.94-.7-.41.48-1.47-.23-.59.45h-1.9l-.11-.99-.6 1h-3.7l-.29-.93-.06.92H32.8l-.8-.23-6.06-.06-.29.3-4.21-.01-.48-.89-.19.92-1.88-.02-.57.28.36.48-.07 1.3Z"/>
    <path fill="#18212a" d="m11.06 19.93 8.17 1.25-1.62 3.32h2.7l1.38 3.4 1.68-3.4h12.16l-.2 2.27.8-2.27h6.16l1.23 3.08V24.5h5.65v7.7h1.87v-7.7h10.6l-2.84 7.7h1.7v4.86H45.69l-.6-.44-.46.7h-4.21l-.6-1.76h-2.34l-.49 1.5h-9.71V30.2h-.85l-3.2 6.86h-4.99l-.65-.59 1.14-2.77-1.63-3.58v10.17l-5.39 4.23-.63-.36V32.5h-.95v7l-1.73.65-4.45-2.88v-7.89l.55-.15-.55-.46V25L2 21.04l8.12-1.13v6.96h.93v-6.94Zm21.5 9.76v4.59l1.32-4.6h-1.32Z"/>
    <g fill="#fff">
        <path d="M52.22 25.73h7.47l-1 2.73h-3.76v1.27h2.97l-.77 2.25h-2.22v1.3h4.56v2.86h-7.24V25.73Z"/>
        <path d="M44.06 25.73h3.87l-.01 7.33h2.9l1.13 3.08h-7.23v-9.22l-.66-1.19Z"/>
        <path d="M36.12 25.73h5.4l-.39.82 3.46 9.6h-3.26l-.58-1.42h-3.9l-.56 1.41h-3.25l3.5-9.58-.42-.83Zm2.7 3.24-1.06 3.01h2.12l-1.05-3.01Z"/>
        <path d="m23.69 25.75 11.12-.02-1.1 2.98h-1.9v7.42l-3.38.01v-7.43H26.6l-.43-.98-3.88 8.41h-3.35l1.1-2.46-3.56-7.95h3.23l2.02 4.3 1.97-4.28Z"/>
        <path d="m3.83 21.9 5.67-.84-.09 7.08 3.03-.04v-7.05l5.47.86-1.62 3.45v14.1l-3.85 2.7V31.54l-2.94.02v7.42l-.48.13-3.6-2.62V25.36l-1.6-3.46Z"/>
    </g>
    <g fill="#3a6aa2">
        <path d="M52.9 26.43h5.83l-.64 1.45-3.66.03v2.24h2.5l-.42 1.22h-2.07v2.65h4.28v1.5H52.9v-9.09Z"/>
        <path d="M45.45 26.71h1.71v7.14h3.12l.55 1.68h-5.39v-8.82Z"/>
        <path d="m37.25 26.7 3.07-.02 3.2 8.58h-1.8l-.55-1.37h-4.83l-.52 1.37H34.1l3.15-8.57Zm1.88 1.66h-.66l-1.43 4.03h3.5l-1.41-4.03Z"/>
        <path d="M26.42 26.43h7.3l-.59 1.48h-2.12v7.4H29.2v-7.4h-2.1l-.67-1.48Z"/>
        <path d="M17.6 26.43h1.61l2.49 5.4 2.48-5.4h1.71l-4.05 8.88h-1.81l.8-1.7-3.22-7.18Z"/>
        <path d="m6.4 23.54 2.33-.25v5.35h4.4V23.3l2.36.41V38.8l-2.36 1.53v-9.3h-4.4v6.22l-2.32-1.65V23.53Z"/>
    </g>
</svg>
